<svg width="20" height="20" viewBox="0 0 20 20" fill="none" xmlns="http://www.w3.org/2000/svg">
<path d="M8.21449 4.2857H11.7859C11.7859 3.8121 11.5978 3.3579 11.2629 3.02301C10.928 2.68812 10.4738 2.49999 10.0002 2.49999C9.52661 2.49999 9.0724 2.68812 8.73752 3.02301C8.40263 3.3579 8.21449 3.8121 8.21449 4.2857ZM7.14307 4.2857C7.14307 3.52794 7.44409 2.80121 7.9799 2.2654C8.51572 1.72958 9.24245 1.42856 10.0002 1.42856C10.758 1.42856 11.4847 1.72958 12.0205 2.2654C12.5563 2.80121 12.8574 3.52794 12.8574 4.2857H17.3216C17.4637 4.2857 17.6 4.34214 17.7004 4.44261C17.8009 4.54307 17.8574 4.67934 17.8574 4.82142C17.8574 4.9635 17.8009 5.09976 17.7004 5.20022C17.6 5.30069 17.4637 5.35713 17.3216 5.35713H16.3859L15.5166 15.7878C15.4534 16.5466 15.1073 17.254 14.547 17.7696C13.9867 18.2852 13.2531 18.5714 12.4916 18.5714H7.50878C6.74735 18.5714 6.01374 18.2852 5.45343 17.7696C4.89312 17.254 4.54702 16.5466 4.48378 15.7878L3.61449 5.35713H2.67878C2.5367 5.35713 2.40044 5.30069 2.29997 5.20022C2.19951 5.09976 2.14307 4.9635 2.14307 4.82142C2.14307 4.67934 2.19951 4.54307 2.29997 4.44261C2.40044 4.34214 2.5367 4.2857 2.67878 4.2857H7.14307ZM5.55164 15.6986C5.59249 16.1896 5.81637 16.6473 6.17889 16.981C6.5414 17.3146 7.01608 17.4999 7.50878 17.5H12.4916C12.9843 17.4999 13.459 17.3146 13.8215 16.981C14.184 16.6473 14.4079 16.1896 14.4488 15.6986L15.3116 5.35713H4.68949L5.55164 15.6986ZM8.39307 7.85713C8.53515 7.85713 8.67141 7.91357 8.77187 8.01404C8.87234 8.1145 8.92878 8.25076 8.92878 8.39284V14.4643C8.92878 14.6064 8.87234 14.7426 8.77187 14.8431C8.67141 14.9435 8.53515 15 8.39307 15C8.25099 15 8.11473 14.9435 8.01426 14.8431C7.91379 14.7426 7.85735 14.6064 7.85735 14.4643V8.39284C7.85735 8.25076 7.91379 8.1145 8.01426 8.01404C8.11473 7.91357 8.25099 7.85713 8.39307 7.85713ZM12.1431 8.39284C12.1431 8.25076 12.0866 8.1145 11.9862 8.01404C11.8857 7.91357 11.7494 7.85713 11.6074 7.85713C11.4653 7.85713 11.329 7.91357 11.2285 8.01404C11.1281 8.1145 11.0716 8.25076 11.0716 8.39284V14.4643C11.0716 14.6064 11.1281 14.7426 11.2285 14.8431C11.329 14.9435 11.4653 15 11.6074 15C11.7494 15 11.8857 14.9435 11.9862 14.8431C12.0866 14.7426 12.1431 14.6064 12.1431 14.4643V8.39284Z" fill="#424243" style="fill:#424243;fill:color(display-p3 0.2588 0.2588 0.2627);fill-opacity:1;"/>
</svg>
