<svg width="20" height="20" viewBox="0 0 20 20" fill="none" xmlns="http://www.w3.org/2000/svg">
<rect width="20" height="20" rx="10" fill="#F2ECD9" style="fill:#F2ECD9;fill:color(display-p3 0.9488 0.9237 0.8512);fill-opacity:1;"/>
<path d="M6.78905 8.69299C6.68161 8.60207 6.59416 8.48962 6.53227 8.36278C6.47038 8.23595 6.43541 8.09752 6.42958 7.95632C6.42376 7.81512 6.4472 7.67425 6.49843 7.54268C6.54966 7.41111 6.62755 7.29173 6.72712 7.19216C6.8267 7.09258 6.94578 7.01499 7.07679 6.96432C7.20779 6.91366 7.34783 6.89104 7.488 6.8979C7.62816 6.90476 7.76537 6.94096 7.89088 7.00418C8.01638 7.0674 8.12743 7.15626 8.21695 7.26509L13.0361 12.0842L13.5716 14.0476L11.6082 13.5121L6.78905 8.69299Z" stroke="#424243" style="stroke:#424243;stroke:color(display-p3 0.2588 0.2588 0.2627);stroke-opacity:1;" stroke-linecap="round" stroke-linejoin="round"/>
</svg>
