<svg width="21" height="22" viewBox="0 0 21 22" fill="none" xmlns="http://www.w3.org/2000/svg">
<path d="M17.9306 9.68012L17.8445 9.35201H10.7277V12.3144H14.9844C14.7469 13.2183 14.2069 14.0181 13.4508 14.5857C12.6947 15.1534 11.7662 15.4561 10.8138 15.4455C9.57111 15.4355 8.37706 14.9707 7.4659 14.1424C7.01799 13.7098 6.66155 13.1948 6.41699 12.6269C6.17242 12.0591 6.04453 11.4495 6.04063 10.8332C6.05509 9.59525 6.55518 8.41025 7.4372 7.52396C8.3355 6.68996 9.52866 6.22961 10.766 6.23964C11.8258 6.24763 12.8461 6.6343 13.6357 7.3271L15.7401 5.20843C14.3531 3.99569 12.5578 3.32796 10.699 3.33351C9.67653 3.32756 8.66282 3.51904 7.71582 3.89704C6.76881 4.27504 5.90705 4.83214 5.17973 5.53654C3.79627 6.94487 3.01627 8.81935 3.00025 10.7742C2.98424 12.7291 3.73343 14.6156 5.09364 16.0455C5.84726 16.7813 6.74295 17.3626 7.72838 17.7553C8.71382 18.1481 9.76923 18.3444 10.833 18.3329C11.7976 18.3399 12.7537 18.1549 13.6432 17.7891C14.5327 17.4233 15.3372 16.8844 16.0079 16.2049C17.3241 14.7865 18.0361 12.9281 17.9976 11.0113C18.0079 10.5666 17.9855 10.1217 17.9306 9.68012Z" stroke="white" style="stroke:white;stroke:white;stroke-opacity:1;" stroke-linejoin="round"/>
</svg>
