<svg width="120" height="120" viewBox="0 0 120 120" fill="none" xmlns="http://www.w3.org/2000/svg">
<path fill-rule="evenodd" clip-rule="evenodd" d="M74.7069 51.0897C74.8917 50.7962 75.0776 50.7156 75.3029 50.4859C75.4973 50.2878 75.6174 50.1206 75.8107 49.8548C79.0463 45.407 75.946 39.1305 75.7711 37.5579L76.7243 37.1837L78.7503 35.8935C78.9182 35.79 78.7682 35.862 78.9286 35.7997C79.2854 35.3204 79.9239 35.0314 80.9303 33.6252C85.0587 27.8576 83.2931 20.1638 77.5736 16.7413C76.053 15.8314 75.9256 16.0135 75.0878 15.613L74.7971 15.4314C74.1906 15.5017 73.2799 15.164 72.5683 15.1066C71.6306 15.031 70.8064 15.1021 69.8823 15.1619C69.4308 14.8298 69.0812 14.3564 68.5872 13.9692C67.0419 12.7581 65.7303 11.9327 63.7721 11.2525C59.729 9.84806 55.205 10.2373 51.4355 12.2789C48.8096 13.701 46.5431 15.9625 45.2019 18.6287C44.7669 19.4934 44.5374 19.2852 43.6381 19.6457C36.7258 22.4173 34.0772 31.3955 38.9858 37.5885C41.1393 40.3054 43.7571 41.53 47.262 42.0088C47.7075 45.2175 47.3684 47.9374 48.8708 51.5292C49.4964 53.0247 50.1386 53.7521 51.6439 54.3315C56.6839 56.2722 65.8824 54.7048 70.9126 52.9096C73.1182 52.1225 72.9197 52.038 74.4592 51.194C74.6546 51.0869 74.5425 51.1271 74.7068 51.0896L74.7069 51.0897ZM45.9766 40.8961L46.2356 40.854C44.534 40.4561 42.3598 38.9374 41.2758 37.667L41.0471 37.4003C39.8303 36.1002 38.907 34.0029 38.5711 32.2391C38.3408 31.0301 38.3133 28.7443 38.6531 27.5402C38.7302 27.2669 38.8796 27.0495 38.943 26.8458C39.326 25.6158 39.4651 25.0938 40.2372 23.9906C41.5552 22.1078 42.6937 21.3805 42.9757 20.9386L42.9818 20.9757C41.6543 21.1849 39.4556 23.7424 38.6551 25.1779C37.5618 27.1386 37.0657 29.6318 37.4724 32.215C37.9906 35.5066 40.1563 38.2902 42.7823 39.7733C43.4843 40.1698 45.0399 40.9477 45.9766 40.8962V40.8961ZM48.9696 43.9349L49.2777 43.8268L49.2085 42.1165L51.249 42.1081C50.8635 42.2749 48.7403 42.1759 48.1429 42.1759L48.2019 43.9379L48.9697 43.9348L48.9696 43.9349ZM53.9452 54.0173L54.275 53.9969C53.3241 53.8496 52.3596 53.4521 51.7863 52.8462C49.7704 50.7159 49.5706 45.4158 49.3223 44.8235L48.2798 44.7801C48.5275 47.0853 49.0433 51.9143 51.1429 53.1738C51.7028 53.5097 53.2244 54.1709 53.9452 54.0173V54.0173Z" fill="#414141" style="fill:#414141;fill:color(display-p3 0.2549 0.2549 0.2549);fill-opacity:1;"/>
<path fill-rule="evenodd" clip-rule="evenodd" d="M51.5956 13.2197C51.7933 13.3757 51.7826 13.1915 51.3987 13.4418L50.2149 14.4605C49.9435 14.7087 49.7124 14.9435 49.4815 15.175C49.3894 15.2672 49.186 15.47 49.1298 15.5388L48.8351 15.974C47.6163 17.4795 48.3806 16.4979 47.2564 18.2095C46.5597 19.2702 47.1536 18.9887 46.7565 19.1448C46.7803 19.1625 46.819 19.1539 46.8329 19.1904L48.2109 19.6966C49.1153 20.0757 49.7909 20.7301 50.4385 21.3923C50.7281 21.6885 51.3111 22.0535 51.131 22.4952C50.7091 22.661 50.6517 22.3287 50.351 21.9963C49.1127 20.6276 47.0202 19.5497 45.067 20.0493C44.3981 20.2204 43.3839 20.4776 42.9819 20.9756L42.9758 20.9384C42.6939 21.3804 41.5553 22.1076 40.2373 23.9905C39.4652 25.0937 39.3262 25.6157 38.9432 26.8456C38.8798 27.0494 38.7304 27.2667 38.6532 27.54C38.3134 28.7442 38.3409 31.0301 38.5713 32.2389C38.9072 34.0027 39.8304 36.1 41.0472 37.4002L41.2759 37.6668C42.36 38.9373 44.5342 40.4561 46.2357 40.8538L45.9767 40.896C47.0582 41.7569 56.0301 40.8452 57.8351 40.5521C61.3384 39.983 64.279 39.2259 67.6013 38.2395C68.2159 38.0571 68.1389 38.1806 68.2189 38.2566C67.2269 38.942 60.6073 40.5296 58.8973 40.8901C56.4803 41.3997 53.5003 41.804 51.0089 41.9659L48.8321 42.0254C48.1432 42.0158 48.2513 42.0306 48.1429 42.1759C48.7404 42.1759 50.8636 42.2748 51.249 42.1082L49.2085 42.1166L49.2777 43.8268L48.9697 43.935L49.6596 44.0878C53.6663 44.395 59.2534 43.3046 59.2582 43.3051L59.4676 43.3758C59.4816 43.3815 59.5135 43.3972 59.5312 43.4144C59.0225 43.744 55.5812 44.3614 54.75 44.4745C52.8896 44.7277 51.216 44.8481 49.3222 44.8237C49.5706 45.4159 49.7704 50.7159 51.7863 52.8464C52.3595 53.4522 53.3241 53.8499 54.275 53.997L53.9452 54.0175L56.2637 54.3495C57.1627 54.3939 57.9473 54.3896 58.8454 54.3537C62.9471 54.1896 68.2283 53.194 71.8257 51.6486C74.5679 50.4706 76.1311 49.0028 76.3861 45.7865C76.5117 44.2013 76.2994 42.5598 75.943 41.0842C75.438 38.9936 74.9352 38.2338 74.6363 37.1221C75.7233 36.3858 78.7711 36.1357 81.1577 31.6842C82.6953 28.8164 82.7464 24.9265 81.2458 21.9416C79.9455 19.3551 77.7299 17.3356 74.8185 16.4025C73.1952 15.8822 71.3107 15.7973 69.5795 16.0948C68.1173 16.3459 67.1705 17.0152 66.2896 18.0625C66.1055 18.2813 66.2382 18.3671 65.8398 18.2867C65.5251 17.5272 67.8329 15.8055 68.8815 15.4778C68.5339 14.8076 66.2829 13.3446 65.5714 12.9688C62.5694 11.3827 59.2742 10.8492 55.8567 11.5416C55.047 11.7057 54.349 11.9292 53.6166 12.1941L51.5953 13.2199L51.5956 13.2197Z" fill="#EED6AE" style="fill:#EED6AE;fill:color(display-p3 0.9333 0.8388 0.6813);fill-opacity:1;"/>
<path fill-rule="evenodd" clip-rule="evenodd" d="M27.8871 115.592C29.462 116.327 29.9907 116.173 31.82 116.173H81.333C84.2845 116.173 87.3762 116.264 90.3101 116.174C91.6864 116.133 92.827 115.403 93.3408 114.629C93.8788 113.818 93.9606 114.137 94.6298 113.655C94.8569 113.491 95.087 113.288 95.2391 113.126C95.3867 112.968 95.5674 112.677 95.7742 112.568C98.6483 112.876 101.806 113.54 104.659 113.969C107.011 114.323 108.752 114.425 110.486 112.485C111.225 111.658 111.163 111.24 111.509 110.916C111.516 109.899 112.116 108.729 111.185 106.918C110.686 105.948 109.847 105.114 108.818 104.636C107.43 103.992 106.402 104.133 104.86 104.382L96.8544 105.652C96.2911 105.747 95.375 106.033 94.9975 105.776C94.7378 105.6 94.726 105.486 94.3477 105.287C93.8253 105.011 93.9781 105.184 93.757 104.646C92.6665 101.991 90.007 102.352 86.7999 102.352H31.0979C29.4551 102.351 28.4486 102.407 27.4571 103.313C26.9942 103.735 26.848 103.977 26.5064 104.64C26.1608 105.311 25.9685 104.887 25.1264 105.63C24.6476 106.053 24.5748 105.891 23.378 105.701L17.3385 104.742C14.5345 104.288 11.7924 103.616 9.90242 105.46C8.21481 107.106 7.47868 109.928 9.23709 112.208C10.9934 114.485 12.9388 114.377 16.2072 113.841C17.4029 113.645 23.6402 112.573 24.2901 112.612C26.1105 114.77 25.8082 113.361 27.0735 114.797C27.3005 115.055 27.6352 115.372 27.8872 115.591L27.8871 115.592Z" fill="#414141" style="fill:#414141;fill:color(display-p3 0.2549 0.2549 0.2549);fill-opacity:1;"/>
<path fill-rule="evenodd" clip-rule="evenodd" d="M25.115 106.767C24.0377 106.776 21.6313 106.25 20.4233 106.063C18.8539 105.819 17.2953 105.556 15.7078 105.317C13.846 105.037 12.922 104.658 11.2195 105.54C8.91206 106.736 8.27418 110.079 10.2642 112.106C10.3194 112.162 10.357 112.205 10.4174 112.263C10.5379 112.38 10.6597 112.479 10.8153 112.59C12.2444 113.618 13.4332 113.426 15.2908 113.126C18.2909 112.642 21.7295 111.964 24.6848 111.648C25.1029 112.211 25.0986 112.455 25.7519 112.92C25.9491 113.06 26.2918 113.254 26.5677 113.346C27.1387 113.538 27.1079 113.341 27.378 113.768C28.1298 114.956 28.7437 115.346 30.6852 115.339L89.1723 115.339C91.0343 115.339 91.981 115.179 92.7276 114.014C93.4447 112.896 93.1855 113.63 94.1491 112.963C94.852 112.476 94.8269 112.248 95.2843 111.645C97.2223 111.835 99.6737 112.303 101.638 112.65C104.364 113.13 107.723 114.111 109.596 112.213L109.851 111.95C112.133 109.518 110.48 104.849 106.501 104.986C105.552 105.019 104.266 105.341 103.264 105.477L96.7626 106.505C93.7835 106.951 95.3335 106.754 93.943 106.001C93.0909 105.54 93.3715 106.019 93.026 105.063C92.3719 103.255 90.7541 103.177 89.2755 103.177H36.5649C35.1315 103.177 30.2064 103.003 29.1824 103.288C28.307 103.532 27.5235 104.256 27.2314 105.05C26.7557 106.344 26.473 105.193 25.115 106.767V106.767Z" fill="#EED6AE" style="fill:#EED6AE;fill:color(display-p3 0.9333 0.8388 0.6813);fill-opacity:1;"/>
<path fill-rule="evenodd" clip-rule="evenodd" d="M14.9773 84.2354C13.0641 84.2431 0.898453 84.1029 0.12402 84.3342C-0.0683736 84.9916 0.0430221 96.9525 0.0430221 98.7037C0.0430221 100.342 -0.110874 112.718 0.16347 113.126C0.462685 113.498 4.63578 113.308 5.72525 113.318C6.31844 113.323 7.09268 113.346 6.76373 112.629C6.22772 112.281 1.92017 112.506 0.923229 112.467L0.879109 85.0925C3.34849 84.925 15.2459 85.2745 16.1422 84.9791C16.3285 84.3237 15.339 83.2211 14.7408 82.1564C10.3135 74.2769 8.18777 67.5795 7.59773 58.0534C6.94193 47.4658 10.1997 36.9656 14.6093 29.3986C18.9139 22.0116 24.9699 15.7368 32.152 11.2591C49.0032 0.753011 70.8322 0.439694 87.7519 11.2131C91.0841 13.3347 91.5249 13.8857 94.1102 15.888L97.6172 19.1866C100.638 22.4223 103.042 25.4091 105.354 29.3967C109.752 36.9805 113.044 47.4805 112.367 58.0556C111.863 65.9224 110.18 72.5526 106.797 79.2986C105.647 81.5922 105.067 82.346 103.907 84.2575C103.846 84.358 103.766 84.4479 103.754 84.6002C103.726 84.9825 103.837 84.8838 103.954 84.9688C104.37 85.2672 117.274 84.999 119.093 85.087L119.1 112.474L114.133 112.473C113.407 112.462 113.026 112.334 113.114 113.167C113.608 113.4 119.498 113.478 119.802 113.133C120.077 112.821 119.938 94.5127 119.938 91.5861C119.938 90.0327 120.124 85.4964 119.851 84.3298C118.841 84.0463 107.448 84.3404 104.996 84.2246C105.076 83.9816 107.47 79.9575 108.104 78.5371C109.061 76.3907 109.855 74.4468 110.656 72.1139C112.25 67.4698 113.095 62.0405 113.246 56.7208C113.55 46.0123 110.294 36.0318 105.736 28.3966C103.322 24.3532 100.721 21.1558 97.9369 18.3533L95.0953 15.6235C92.3203 13.4716 91.8646 12.7531 87.9739 10.3668C68.6192 -1.50444 44.3567 0.0462339 26.8432 13.9828C22.3391 17.567 17.0494 23.3254 14.2615 28.3306C13.1798 30.2728 12.1897 32.0241 11.2393 34.1806C5.98311 46.1067 5.2507 59.5724 9.28305 72.0382C10.2565 75.0476 11.7965 78.665 13.3315 81.3956C13.7497 82.1398 14.7631 83.6197 14.9774 84.2352L14.9773 84.2354Z" fill="#EED6AE" style="fill:#EED6AE;fill:color(display-p3 0.9333 0.8388 0.6813);fill-opacity:1;"/>
<path fill-rule="evenodd" clip-rule="evenodd" d="M18.626 58.7758C21.2031 56.0241 21.6542 55.5856 25.2185 55.5851C26.6185 55.5851 26.3257 56.2898 26.3257 57.5462L26.3239 74.0504C26.3226 75.3903 25.9829 76.1628 24.7546 76.3581L32.8799 76.3616C31.2495 75.8324 31.3053 75.4796 31.3058 73.5348L31.3067 56.9273C31.3067 55.3409 31.5929 55.5853 33.2645 55.5853C34.9041 55.5853 35.7063 55.8407 36.7588 56.6331C37.2492 57.0025 38.8435 58.4248 38.9777 58.8341C38.9966 58.4968 38.059 55.3277 37.8685 54.8L19.7725 54.7976C19.5433 55.2759 18.7217 58.1314 18.6261 58.7759L18.626 58.7758Z" fill="#EED6AE" style="fill:#EED6AE;fill:color(display-p3 0.9333 0.8388 0.6813);fill-opacity:1;"/>
<path fill-rule="evenodd" clip-rule="evenodd" d="M41.2121 63.6127L41.2145 67.2247C41.7046 66.7173 43.8375 61.7642 47.1595 62.7439C48.2751 63.0728 49.3889 64.5833 48.74 66.1058C48.4689 66.7418 47.903 66.9331 47.1746 67.2253C46.5184 67.4885 45.852 67.6831 45.1571 67.8969C42.4095 68.7419 39.3019 69.8054 39.7025 73.0861C40.0976 76.3219 45.1014 76.8721 46.9729 76.2168C46.7805 76.0187 46.2192 75.8658 45.7983 75.5434C45.4392 75.2683 45.2031 74.8996 44.9869 74.3927C44.5546 73.378 44.5452 72.1623 44.827 71.066C45.2254 69.5174 46.4319 68.7756 47.6117 68.0834C48.1037 67.7946 48.367 67.537 48.8675 67.3182L48.8682 76.3755L54.9199 76.391C53.9853 75.6685 53.8532 76.5702 53.8538 73.7412C53.8541 72.5033 53.8538 71.2655 53.8538 70.0277C53.8538 67.3829 54.201 65.3705 52.5925 63.7981C49.8209 61.0887 44.7095 61.5599 41.2122 63.6128L41.2121 63.6127Z" fill="#EED6AE" style="fill:#EED6AE;fill:color(display-p3 0.9333 0.8388 0.6813);fill-opacity:1;"/>
<path fill-rule="evenodd" clip-rule="evenodd" d="M58.0387 72.179L58.049 75.4448C60.696 76.6452 65.5536 76.8807 68.1179 75.585C71.2185 74.0183 71.5978 70.2504 68.5066 68.3076C66.2294 66.8764 60.0759 65.5831 62.2487 63.5239C63.7717 62.0804 66.9264 62.8298 68.6322 64.6771C68.8787 64.9441 69.1382 65.1034 69.3644 65.3877C69.4796 65.5326 69.8485 66.0651 70.034 66.1621L70.0429 62.9655C67.0809 61.7756 62.435 61.3887 59.7639 63.0011C58.7186 63.632 57.3172 64.9274 57.3361 66.7281C57.368 69.7265 61.6835 70.8453 64.3903 72.018C65.5258 72.51 68.2217 73.5701 66.2693 75.0781C64.5733 76.3881 61.148 75.4165 59.4573 73.8469C59.1293 73.5423 58.9072 73.2731 58.7241 73.0362C58.5207 72.7728 58.2879 72.3516 58.0386 72.179H58.0387Z" fill="#EED6AE" style="fill:#EED6AE;fill:color(display-p3 0.9333 0.8388 0.6813);fill-opacity:1;"/>
<path fill-rule="evenodd" clip-rule="evenodd" d="M37.8589 82.1661C39.1736 82.8951 38.9595 82.7297 38.9595 85.3972C38.9595 87.6778 39.0679 94.4135 38.954 96.2343C38.8993 97.1086 38.6743 97.1607 38.208 97.4891L42.5137 97.61C42.5374 95.4702 42.4389 93.2253 42.5204 91.0967C42.6377 88.0391 44.8049 87.7387 45.57 89.1802C46.0532 90.0907 45.8017 94.0599 45.83 95.4066C45.8816 97.8565 48.0278 97.7931 50.2856 97.5772C49.0543 96.8589 49.3854 96.2171 49.3854 93.7525C49.3854 92.5223 49.5589 90.133 49.1027 89.1601C48.1843 87.201 44.6142 86.4628 42.6998 88.5557C42.579 88.6878 42.6398 88.637 42.5153 88.7407L42.5082 82.181L37.859 82.1661H37.8589Z" fill="#EED6AE" style="fill:#EED6AE;fill:color(display-p3 0.9333 0.8388 0.6813);fill-opacity:1;"/>
<path fill-rule="evenodd" clip-rule="evenodd" d="M74.5222 60.2351L74.4985 61.935L72.3257 61.9325L72.3337 62.7491L74.4833 62.7461C74.757 64.9254 74.2915 70.6171 74.5359 73.3209C74.8581 76.8868 78.8399 76.5217 82.231 76.3818C81.6822 75.8878 80.3377 75.9536 79.767 74.687C79.2846 73.6166 79.4826 68.347 79.4826 66.8297C79.4826 65.6957 79.3712 63.7959 79.5151 62.7538L83.2378 62.7445L83.2423 61.9307L79.5227 61.9337L79.4762 57.9937C78.8574 58.7624 78.8014 59.0688 77.4787 59.5736C76.4413 59.9695 75.6692 60.084 74.5222 60.235V60.2351Z" fill="#EED6AE" style="fill:#EED6AE;fill:color(display-p3 0.9333 0.8388 0.6813);fill-opacity:1;"/>
<path fill-rule="evenodd" clip-rule="evenodd" d="M84.4343 79.4062L84.4248 82.2944C89.7546 83.27 91.383 76.833 93.2538 73.176C94.384 70.9665 96.6963 65.5648 97.5555 64.0746C98.547 62.3551 99.3576 62.3949 100.013 61.9818L96.173 61.9535C97.5628 63.0329 96.8189 63.6166 95.8911 65.6123C93.9095 69.8752 94.0157 69.8576 92.8612 66.9558C92.5585 66.1948 92.28 65.4744 91.9898 64.7418C90.7075 61.5046 89.2411 61.9131 85.7675 61.9337L83.8481 61.9565C83.8719 61.9763 83.9096 61.9709 83.9236 62.0104C83.9956 62.2145 85.2359 62.2508 86.1566 63.86C86.7818 64.953 89.2041 71.0015 89.8687 72.5296C90.9517 75.02 91.5603 75.5962 89.6715 78.473C88.8625 79.7052 87.2201 80.8776 85.6469 80.2625C84.9994 80.0095 84.8747 79.6376 84.4341 79.4064L84.4343 79.4062Z" fill="#EED6AE" style="fill:#EED6AE;fill:color(display-p3 0.9333 0.8388 0.6813);fill-opacity:1;"/>
<path fill-rule="evenodd" clip-rule="evenodd" d="M91.5324 96.0363C89.9202 96.2628 88.6585 96.6894 87.0843 95.8457C85.3848 94.935 85.0321 92.7869 85.4556 92.4023C85.8781 92.1266 91.4713 92.2559 92.4538 92.2802C92.5698 91.0142 91.8146 89.547 91.2015 88.9394C90.3952 88.1402 89.5418 87.5997 87.9769 87.3996C81.4059 86.5592 79.4676 94.3576 84.3973 96.9882C85.4444 97.5468 87.0076 97.797 88.3576 97.5724C89.555 97.3732 90.9812 96.7365 91.5324 96.0363ZM86.6205 87.9667C85.8007 88.3185 85.4378 89.2639 85.2825 90.3562C85.0438 92.0353 85.3266 91.6856 87.7293 91.7011C88.4433 91.7058 88.8865 91.8536 88.9266 91.0617C88.9856 89.8999 88.1733 87.3003 86.6204 87.9667H86.6205Z" fill="#EED6AE" style="fill:#EED6AE;fill:color(display-p3 0.9333 0.8388 0.6813);fill-opacity:1;"/>
<path fill-rule="evenodd" clip-rule="evenodd" d="M27.8861 115.592C27.752 115.918 28.0527 115.979 28.4035 116.058C28.3007 116.329 28.2835 116.234 28.312 116.299C28.7738 116.103 28.5298 116.345 28.9197 116.543C29.6947 116.936 44.5637 116.74 45.5383 116.74L90.4118 116.743C93.0317 116.746 93.327 114.95 93.8869 114.676C94.3653 114.442 95.2186 114.316 95.7472 113.111C97.4577 113.256 98.787 113.631 100.49 113.81C102.02 113.971 103.569 114.408 105.079 114.554C107.033 114.742 108.516 115.155 110.238 113.468C110.995 112.727 111.441 112.111 111.509 110.916C111.163 111.24 111.224 111.658 110.485 112.485C108.751 114.425 107.01 114.323 104.658 113.969C101.805 113.54 98.6473 112.876 95.7732 112.568C95.5664 112.677 95.3857 112.969 95.2382 113.126C95.0861 113.288 94.856 113.491 94.6289 113.655C93.9596 114.137 93.8779 113.818 93.3399 114.629C92.826 115.403 91.6856 116.133 90.3091 116.174C87.3754 116.264 84.2837 116.173 81.332 116.173H31.8191C29.9898 116.173 29.4611 116.327 27.8861 115.592Z" fill="#EED6AE" style="fill:#EED6AE;fill:color(display-p3 0.9333 0.8388 0.6813);fill-opacity:1;"/>
<path fill-rule="evenodd" clip-rule="evenodd" d="M79.0004 96.8517C71.7986 97.1277 73.2275 86.9956 76.8645 87.9043C78.3619 88.2785 79.2152 90.1322 79.67 90.8348L79.7117 88.3474C78.7773 87.9806 78.2122 87.5555 76.9906 87.3599C73.8302 86.8538 70.681 88.5371 70.3292 91.8537C69.9668 95.269 72.9615 97.4631 75.8628 97.5561C76.849 97.5878 78.4481 97.3797 79.0004 96.8516V96.8517Z" fill="#EED6AE" style="fill:#EED6AE;fill:color(display-p3 0.9333 0.8388 0.6813);fill-opacity:1;"/>
<path fill-rule="evenodd" clip-rule="evenodd" d="M35.0493 96.855C33.046 96.8796 31.8808 96.461 30.9645 95.2244C28.0575 91.3019 31.6303 84.3673 35.2172 89.9456C35.3764 90.1931 35.5171 90.5624 35.72 90.8349L35.7548 88.3577C34.8326 87.9777 34.2611 87.5622 33.0476 87.3615C31.9282 87.1765 30.7077 87.253 29.7264 87.6363C25.4882 89.2915 25.2241 94.5527 28.9528 96.7224C30.4369 97.5861 33.706 98.0095 35.0494 96.8551L35.0493 96.855Z" fill="#EED6AE" style="fill:#EED6AE;fill:color(display-p3 0.9333 0.8388 0.6813);fill-opacity:1;"/>
<path fill-rule="evenodd" clip-rule="evenodd" d="M56.0105 97.839C56.0957 96.9171 55.3017 96.0902 55.614 94.4284C55.8233 93.3145 56.3562 92.4529 56.6555 91.3579C57.343 88.843 55.9557 85.7268 53.6842 87.662C51.6608 89.3859 51.0581 93.8828 53.1764 96.6362C53.6178 97.21 54.8712 98.2323 56.0104 97.8391L56.0105 97.839Z" fill="#EED6AE" style="fill:#EED6AE;fill:color(display-p3 0.9333 0.8388 0.6813);fill-opacity:1;"/>
<path fill-rule="evenodd" clip-rule="evenodd" d="M63.878 97.5847L68.3507 97.6098L68.3515 87.2626L63.7251 87.2642C64.8067 87.6474 64.8035 88.0128 64.7997 89.2126L64.7985 95.4031C64.8002 96.1516 64.9158 96.8404 64.4111 97.2555C64.293 97.3526 64.2998 97.3316 64.1571 97.4177L63.9487 97.5415C63.9327 97.5511 63.9005 97.5689 63.878 97.5848V97.5847Z" fill="#EED6AE" style="fill:#EED6AE;fill:color(display-p3 0.9333 0.8388 0.6813);fill-opacity:1;"/>
<path fill-rule="evenodd" clip-rule="evenodd" d="M57.4512 87.3894C57.5283 87.74 57.9267 88.2346 58.1187 88.6982C58.3395 89.2314 58.5319 89.7937 58.5609 90.4479C58.6687 92.873 56.4609 94.86 57.104 97.2519C57.8798 100.137 62.883 96.9022 61.7843 91.5458C61.2847 89.1101 59.0859 86.8388 57.4511 87.3894H57.4512Z" fill="#EED6AE" style="fill:#EED6AE;fill:color(display-p3 0.9333 0.8388 0.6813);fill-opacity:1;"/>
<path fill-rule="evenodd" clip-rule="evenodd" d="M18.5869 89.2549C17.2846 89.4568 16.1707 90.7212 16.4358 92.3039C16.9868 95.5928 22.1453 94.8719 21.5908 91.3869C21.3892 90.1195 20.1386 89.0142 18.5869 89.2549Z" fill="#EED6AE" style="fill:#EED6AE;fill:color(display-p3 0.9333 0.8388 0.6813);fill-opacity:1;"/>
<path fill-rule="evenodd" clip-rule="evenodd" d="M99.3668 89.2639C96.0886 89.8449 96.7522 94.9376 100.271 94.4095C101.54 94.2191 102.634 92.9745 102.406 91.3782C102.223 90.0944 100.916 88.9895 99.3668 89.2639Z" fill="#EED6AE" style="fill:#EED6AE;fill:color(display-p3 0.9333 0.8388 0.6813);fill-opacity:1;"/>
<path fill-rule="evenodd" clip-rule="evenodd" d="M74.7974 15.4314L75.0881 15.613C75.9259 16.0135 76.0533 15.8313 77.5739 16.7413C83.2934 20.1638 85.0589 27.8575 80.9306 33.6252C79.924 35.0314 79.2857 35.3204 78.9289 35.7997C79.4812 35.9122 79.3759 35.5399 79.6797 35.9261C79.721 35.2161 79.7321 35.665 80.6971 34.727L82.5786 32.4802C83.9341 30.236 83.3573 30.8348 83.8472 29.4177C84.8281 26.5804 84.1434 22.9599 82.5977 20.4855C81.3481 18.4847 79.3958 16.9732 77.2713 16.0021L75.6594 15.4725C75.6139 15.4584 75.179 15.3846 74.7975 15.4314H74.7974Z" fill="#EED6AE" style="fill:#EED6AE;fill:color(display-p3 0.9333 0.8388 0.6813);fill-opacity:1;"/>
<path fill-rule="evenodd" clip-rule="evenodd" d="M37.9233 111.887C38.979 111.945 40.9932 111.99 41.9313 111.892L41.9997 109.328C41.9998 107.259 41.2605 107.511 39.452 107.519C38.834 107.522 38.4337 107.361 37.9771 107.382C37.9155 107.544 37.706 108.102 37.6961 108.314C37.6714 108.844 38.2183 108.671 37.9231 111.887H37.9233Z" fill="#414141" style="fill:#414141;fill:color(display-p3 0.2549 0.2549 0.2549);fill-opacity:1;"/>
<path fill-rule="evenodd" clip-rule="evenodd" d="M74.707 51.0898C75.0818 51.2699 76.1086 50.2802 76.2244 50.1995L77.2055 49.0947C77.2173 49.0753 77.2314 49.0484 77.2429 49.0286L77.3919 48.7563C77.4758 48.6039 77.5267 48.5146 77.6028 48.3504C78.1201 47.2357 78.2008 46.6813 78.3252 45.3663C78.4132 44.4348 78.1712 41.7873 77.9448 40.9099C77.843 40.5154 77.7494 40.4466 77.6486 39.9725C77.3204 38.4276 77.5711 39.4284 77.0545 38.1035C76.8988 37.7041 76.7773 37.5334 76.7244 37.1838L75.7712 37.558C75.9462 39.1306 79.0464 45.4071 75.8109 49.8549C75.6176 50.1207 75.4976 50.2878 75.3031 50.486C75.0778 50.7157 74.8919 50.7963 74.707 51.0898Z" fill="#EED6AE" style="fill:#EED6AE;fill:color(display-p3 0.9333 0.8388 0.6813);fill-opacity:1;"/>
<path fill-rule="evenodd" clip-rule="evenodd" d="M58.8833 108.599C59.5491 109.209 59.3509 109.006 59.1742 110.064C59.0702 110.687 58.8573 111.351 58.9565 111.987C60.8866 111.949 59.9532 111.423 60.4285 108.845L61.6592 108.808C62.0806 109.233 61.9706 109.905 62.0186 110.544L60.7622 110.606L60.7202 111.911L62.9002 111.936C63.0452 109.194 63.5732 107.265 61.0681 107.542C59.796 107.683 60.0226 107.379 59.1249 107.331L58.8834 108.599L58.8833 108.599Z" fill="#414141" style="fill:#414141;fill:color(display-p3 0.2549 0.2549 0.2549);fill-opacity:1;"/>
<path fill-rule="evenodd" clip-rule="evenodd" d="M44.9268 108.606L45.3373 108.896C45.3255 109.9 44.8593 110.972 44.9619 111.966L46.0957 111.873L46.4211 108.88C48.0835 108.508 47.9721 109.094 48.0395 110.588L46.7848 110.588L46.7112 111.937L48.9039 111.925C49.1739 108.866 49.3608 107.292 47.1267 107.536C45.862 107.675 46.0865 107.397 45.2288 107.346C44.9777 107.737 44.9627 108.051 44.9269 108.606L44.9268 108.606Z" fill="#414141" style="fill:#414141;fill:color(display-p3 0.2549 0.2549 0.2549);fill-opacity:1;"/>
<path fill-rule="evenodd" clip-rule="evenodd" d="M78.2008 108.601L78.6458 108.897C78.6302 109.922 78.1912 110.921 78.2531 111.984L79.4114 111.874L79.7229 108.889C80.6447 108.623 81.1904 108.723 81.2835 109.542C81.3225 109.885 81.3294 110.23 81.3365 110.573L80.0967 110.59L80.0187 111.937L82.2198 111.918C82.2224 109.496 83.0979 107.216 80.3451 107.548C79.1636 107.69 79.2387 107.343 78.4386 107.349L78.2007 108.601L78.2008 108.601Z" fill="#414141" style="fill:#414141;fill:color(display-p3 0.2549 0.2549 0.2549);fill-opacity:1;"/>
<path fill-rule="evenodd" clip-rule="evenodd" d="M49.7677 108.512C50.3264 108.832 50.3279 108.743 50.5458 109.479C50.6667 109.887 50.8526 110.445 50.8931 110.856L49.7637 111.197L49.749 112.496C50.601 112.45 52.9561 111.58 53.2528 110.848C53.4238 110.426 53.6686 109.247 53.7019 108.708C53.7586 107.794 53.2785 107.471 52.4493 107.344C52.207 107.635 52.0698 108.12 51.963 108.497C52.4818 108.811 52.7251 108.676 52.5984 109.48C52.5088 110.05 52.3431 110.318 51.8943 110.411C51.6213 109.105 51.6997 107.441 50.2832 107.351C49.9842 107.653 49.8869 108.067 49.7677 108.512V108.512Z" fill="#414141" style="fill:#414141;fill:color(display-p3 0.2549 0.2549 0.2549);fill-opacity:1;"/>
<path fill-rule="evenodd" clip-rule="evenodd" d="M54.8219 111.995C55.4858 112.106 56.3236 111.857 56.94 111.658C57.8888 111.351 57.8471 111.31 58.0718 110.323C58.4464 108.678 58.7058 107.14 56.4722 107.349C56.2883 107.692 56.1714 108.235 56.2303 108.636L57.2931 108.866C57.5032 110.329 56.8838 110.425 55.6351 110.592C55.6755 109.173 56.1081 107.387 54.5593 107.322C54.4794 107.617 54.2034 107.989 54.2281 108.288C54.2565 108.631 54.5003 108.612 54.5627 109.385C54.617 110.058 54.6734 111.401 54.8218 111.995H54.8219Z" fill="#414141" style="fill:#414141;fill:color(display-p3 0.2549 0.2549 0.2549);fill-opacity:1;"/>
<path fill-rule="evenodd" clip-rule="evenodd" d="M69.4865 111.994C69.8755 112.02 70.3087 111.971 70.6205 111.804L70.6215 108.911C72.7756 108.579 72.2415 109.25 72.3435 112.046L73.2566 111.881L73.3525 109.328C73.2799 107.313 72.9431 107.547 70.8065 107.528C70.2601 107.523 70.0361 107.378 69.587 107.394C68.9058 109.038 69.5812 108.353 69.5674 109.387C69.5561 110.243 69.4969 111.13 69.4864 111.994L69.4865 111.994Z" fill="#414141" style="fill:#414141;fill:color(display-p3 0.2549 0.2549 0.2549);fill-opacity:1;"/>
<path fill-rule="evenodd" clip-rule="evenodd" d="M74.1549 108.754L75.9977 108.926C76.3402 109.363 76.2077 110.085 76.2122 110.591L74.0974 110.588L73.9873 111.933L77.6901 111.928L77.7485 110.67L77.3511 110.536C77.3297 110.527 77.2935 110.508 77.2763 110.5C77.2589 110.493 77.2245 110.479 77.2022 110.463C77.3365 109.065 77.52 107.671 76.1803 107.536C75.9007 107.508 75.5484 107.564 75.2959 107.495C75.2691 107.487 74.0169 106.402 74.1551 108.754H74.1549Z" fill="#414141" style="fill:#414141;fill:color(display-p3 0.2549 0.2549 0.2549);fill-opacity:1;"/>
<path fill-rule="evenodd" clip-rule="evenodd" d="M65.9542 82.9834C63.8692 83.6872 64.863 87.2018 67.2114 86.3403C69.1358 85.6344 68.3891 82.1615 65.9542 82.9834Z" fill="#EED6AE" style="fill:#EED6AE;fill:color(display-p3 0.9333 0.8388 0.6813);fill-opacity:1;"/>
<path fill-rule="evenodd" clip-rule="evenodd" d="M58.7422 23.1576L58.6054 23.5064C58.5908 23.5918 58.5967 23.9204 58.6016 24.0194C58.763 27.321 59.2845 30.0787 60.2409 33.2581C60.392 33.7604 60.9239 36.2657 61.6699 35.7382C62.0568 35.4646 61.2307 33.8879 60.8901 32.9132C60.0993 30.6508 59.7306 29.0485 59.301 26.6856L58.9512 23.5075C58.8465 23.0779 59.0396 23.3562 58.7422 23.1576Z" fill="#414141" style="fill:#414141;fill:color(display-p3 0.2549 0.2549 0.2549);fill-opacity:1;"/>
<path fill-rule="evenodd" clip-rule="evenodd" d="M65.2296 108.709C66.9238 109.584 67.621 107.158 67.4602 111.976C67.8803 112.089 68.0067 111.983 68.4126 111.871C68.5394 111.276 68.8262 108.26 68.0754 107.739C67.5228 107.355 66.765 107.669 66.0552 107.366C65.2121 107.007 65.1909 108.051 65.2296 108.71V108.709Z" fill="#414141" style="fill:#414141;fill:color(display-p3 0.2549 0.2549 0.2549);fill-opacity:1;"/>
<path fill-rule="evenodd" clip-rule="evenodd" d="M47.8887 29.8684C47.9404 30.4052 48.2813 30.5786 48.5731 30.894C50.3437 32.8083 51.7829 34.4022 53.059 36.8166C53.2204 37.122 53.5301 37.9286 54.0076 37.4446C54.5237 36.9214 51.8853 33.6923 51.4873 33.2384L48.9896 30.5751C48.942 30.5295 48.8197 30.4143 48.7804 30.3727C48.6658 30.2514 48.7122 30.2844 48.5917 30.1509C48.3629 29.8972 48.3514 29.8385 47.8887 29.8683V29.8684Z" fill="#414141" style="fill:#414141;fill:color(display-p3 0.2549 0.2549 0.2549);fill-opacity:1;"/>
<path fill-rule="evenodd" clip-rule="evenodd" d="M68.559 35.2466C68.7507 34.9346 69.3451 31.8984 69.8223 30.5667L71.5676 26.2411C70.517 26.7848 68.4454 32.6996 68.0029 34.3163C67.8337 34.934 67.7946 35.3415 68.5589 35.2465L68.559 35.2466Z" fill="#414141" style="fill:#414141;fill:color(display-p3 0.2549 0.2549 0.2549);fill-opacity:1;"/>
<path fill-rule="evenodd" clip-rule="evenodd" d="M46.7562 19.1448C47.1533 18.9887 46.5594 19.2703 47.2561 18.2095C48.3803 16.4978 47.616 17.4795 48.8348 15.974L49.1295 15.5388C49.1858 15.47 49.3891 15.2673 49.4812 15.175C49.7121 14.9435 49.9432 14.7087 50.2146 14.4605L51.3984 13.4419C51.7824 13.1915 51.7931 13.3757 51.5953 13.2197C50.8381 13.345 48.7192 15.248 48.3275 15.6686C47.7993 16.2356 46.148 18.171 45.9438 19.1495L46.7562 19.1449V19.1448Z" fill="white" style="fill:white;fill:white;fill-opacity:1;"/>
<path fill-rule="evenodd" clip-rule="evenodd" d="M42.5244 108.503L43.2026 109.005L42.9041 110.535C44.6299 110.665 44.7779 108.374 44.1341 107.846C43.8752 107.634 43.4141 107.35 43.0533 107.298C42.8401 107.516 42.562 108.048 42.5244 108.503V108.503Z" fill="#414141" style="fill:#414141;fill:color(display-p3 0.2549 0.2549 0.2549);fill-opacity:1;"/>
<path fill-rule="evenodd" clip-rule="evenodd" d="M39.0748 110.543L40.9933 110.587C40.986 109.973 41.0229 109.357 40.8107 108.918L39.0518 108.849L39.0749 110.543L39.0748 110.543Z" fill="#EED6AE" style="fill:#EED6AE;fill:color(display-p3 0.9333 0.8388 0.6813);fill-opacity:1;"/>
</svg>
