<svg width="21" height="21" viewBox="0 0 21 21" fill="none" xmlns="http://www.w3.org/2000/svg">
<path d="M14.625 6.375H14.6325M6.75 3H14.25C16.3211 3 18 4.67893 18 6.75V14.25C18 16.3211 16.3211 18 14.25 18H6.75C4.67893 18 3 16.3211 3 14.25V6.75C3 4.67893 4.67893 3 6.75 3ZM13.5 10.0275C13.5926 10.6517 13.4859 11.2892 13.1953 11.8493C12.9047 12.4094 12.4449 12.8636 11.8812 13.1473C11.3176 13.431 10.6788 13.5297 10.0558 13.4294C9.43284 13.3292 8.85732 13.0351 8.41113 12.5889C7.96494 12.1427 7.6708 11.5672 7.57055 10.9442C7.4703 10.3212 7.56905 9.68242 7.85274 9.11878C8.13644 8.55514 8.59064 8.09531 9.15074 7.80468C9.71084 7.51406 10.3483 7.40744 10.9725 7.5C11.6092 7.59441 12.1986 7.8911 12.6538 8.34623C13.1089 8.80136 13.4056 9.39081 13.5 10.0275Z" stroke="white" style="stroke:white;stroke:white;stroke-opacity:1;" stroke-linecap="round" stroke-linejoin="round"/>
</svg>
