<svg width="21" height="22" viewBox="0 0 21 22" fill="none" xmlns="http://www.w3.org/2000/svg">
<path d="M7.21671 12.6849L12.2489 9.41042L8.54487 12.8693L8.40072 13.0039L8.38729 13.2007L8.13952 16.8307L8.10307 17.3648H8.63836C8.89934 17.3648 9.11682 17.3039 9.3064 17.19C9.46978 17.0919 9.59449 16.9627 9.67826 16.8759C9.68139 16.8727 9.68447 16.8695 9.68749 16.8664L11.0392 15.5228L14.1417 17.8854L14.1667 17.9045L14.1939 17.9203C14.569 18.1376 15.0256 18.2695 15.4558 18.0665C15.8772 17.8677 16.0844 17.4346 16.1821 16.9891L16.1821 16.9891L16.1835 16.9825L18.4469 5.95137C18.447 5.95119 18.447 5.951 18.447 5.95081C18.447 5.95078 18.4471 5.95074 18.4471 5.95071C18.564 5.38408 18.4957 4.84131 18.1402 4.48552C17.7714 4.11641 17.2523 4.10309 16.8223 4.26976L16.8223 4.26974L16.818 4.27144L3.51097 9.56931L3.51097 9.5693L3.50855 9.57028C3.24746 9.67582 3.02075 9.80497 2.84817 9.96227C2.6774 10.1179 2.52596 10.3338 2.50292 10.6053C2.47865 10.8913 2.60543 11.1305 2.7776 11.2979C2.94239 11.4581 3.15957 11.5674 3.38837 11.6412L6.79014 12.7415L7.01693 12.8149L7.21671 12.6849Z" stroke="white" style="stroke:white;stroke:white;stroke-opacity:1;"/>
</svg>
