<svg width="51" height="49" viewBox="0 0 51 49" fill="none" xmlns="http://www.w3.org/2000/svg">
<path d="M36.0475 38.5C36.0475 35.7152 34.9187 33.0445 32.9094 31.0754C30.9 29.1062 28.1748 28 25.3332 28M25.3332 28C22.4916 28 19.7664 29.1062 17.7571 31.0754C15.7478 33.0445 14.6189 35.7152 14.6189 38.5M25.3332 28C29.2781 28 32.4761 24.866 32.4761 21C32.4761 17.134 29.2781 14 25.3332 14C21.3883 14 18.1904 17.134 18.1904 21C18.1904 24.866 21.3883 28 25.3332 28ZM43.1904 24.5C43.1904 34.165 35.1954 42 25.3332 42C15.471 42 7.47607 34.165 7.47607 24.5C7.47607 14.835 15.471 7 25.3332 7C35.1954 7 43.1904 14.835 43.1904 24.5Z" stroke="#424243" style="stroke:#424243;stroke:color(display-p3 0.2588 0.2588 0.2627);stroke-opacity:1;" stroke-linecap="round" stroke-linejoin="round"/>
</svg>
