<svg width="51" height="49" viewBox="0 0 51 49" fill="none" xmlns="http://www.w3.org/2000/svg">
<path d="M25.6662 42C35.5285 42 43.5234 34.165 43.5234 24.5C43.5234 14.835 35.5285 7 25.6662 7C15.804 7 7.80908 14.835 7.80908 24.5C7.80908 34.165 15.804 42 25.6662 42Z" stroke="#424243" style="stroke:#424243;stroke:color(display-p3 0.2588 0.2588 0.2627);stroke-opacity:1;" stroke-linecap="round" stroke-linejoin="round"/>
<path d="M33.9996 22.4C33.9996 28.7 25.6662 35 25.6662 35C25.6662 35 17.3329 28.7 17.3329 22.4C17.3329 20.1722 18.2109 18.0356 19.7737 16.4603C21.3365 14.885 23.4561 14 25.6662 14C27.8764 14 29.996 14.885 31.5588 16.4603C33.1216 18.0356 33.9996 20.1722 33.9996 22.4Z" stroke="#424243" style="stroke:#424243;stroke:color(display-p3 0.2588 0.2588 0.2627);stroke-opacity:1;" stroke-linecap="round" stroke-linejoin="round"/>
<path d="M25.6662 25.55C27.3921 25.55 28.7912 24.1397 28.7912 22.4C28.7912 20.6603 27.3921 19.25 25.6662 19.25C23.9403 19.25 22.5412 20.6603 22.5412 22.4C22.5412 24.1397 23.9403 25.55 25.6662 25.55Z" stroke="#424243" style="stroke:#424243;stroke:color(display-p3 0.2588 0.2588 0.2627);stroke-opacity:1;" stroke-linecap="round" stroke-linejoin="round"/>
</svg>
