<svg width="247" height="227" viewBox="0 0 247 227" fill="none" xmlns="http://www.w3.org/2000/svg">
<g clip-path="url(#clip0_3187_169)">
<path d="M241.137 148.855H227.331C231.129 137.701 233.194 125.752 233.194 113.31C233.194 52.5888 184.09 3.35791 123.5 3.35791C62.9105 3.35791 13.807 52.5888 13.807 113.31C13.807 125.752 15.8715 137.701 19.6696 148.855H5.83545H3.33545V151.355V221.142V223.642H5.83545H241.137H243.637V221.142V151.355V148.855H241.137Z" fill="white" stroke="#424143" style="fill:white;fill:white;fill-opacity:1;stroke:#424143;stroke:color(display-p3 0.2588 0.2549 0.2627);stroke-opacity:1;" stroke-width="5"/>
<path d="M218.906 211.936H229.658V161.444H202.275C212.061 146.541 217.758 128.719 217.758 109.549C217.758 57.3599 175.55 15.0637 123.501 15.0637C71.4369 15.0637 29.2427 57.3739 29.2427 109.549C29.2427 128.719 34.9405 146.555 44.7261 161.444H17.3433V211.936H28.0248H218.92H218.906Z" fill="white" style="fill:white;fill:white;fill-opacity:1;"/>
<path d="M229.672 212.652H218.92C218.528 212.652 218.206 212.329 218.206 211.936C218.206 211.543 218.528 211.22 218.92 211.22H228.958V162.16H202.289C202.023 162.16 201.785 162.02 201.659 161.781C201.533 161.543 201.547 161.262 201.687 161.051C211.739 145.755 217.058 127.933 217.058 109.549C217.058 57.837 175.088 15.7794 123.514 15.7794C71.9267 15.7794 29.9705 57.851 29.9705 109.549C29.9705 127.933 35.2903 145.755 45.3418 161.051C45.4818 161.276 45.4958 161.557 45.3698 161.781C45.2438 162.02 45.0058 162.16 44.7398 162.16H18.071V211.22H28.0386C28.4306 211.22 28.7525 211.543 28.7525 211.936C28.7525 212.329 28.4306 212.652 28.0386 212.652H17.357C16.9651 212.652 16.6431 212.329 16.6431 211.936V161.444C16.6431 161.051 16.9651 160.729 17.357 160.729H43.4239C33.6803 145.447 28.5425 127.779 28.5425 109.549C28.5425 57.0512 71.1427 14.334 123.528 14.334C175.9 14.334 218.514 57.0371 218.514 109.549C218.514 127.779 213.376 145.447 203.633 160.729H229.7C230.092 160.729 230.414 161.051 230.414 161.444V211.936C230.414 212.329 230.092 212.652 229.7 212.652H229.672Z" fill="#424243" style="fill:#424243;fill:color(display-p3 0.2588 0.2588 0.2627);fill-opacity:1;"/>
<path d="M208.463 198.899C201.967 199.924 195.485 200.962 188.99 201.986C188.29 201.187 187.394 200.569 186.386 200.204C185.756 197.538 183.376 195.545 180.52 195.545H73.0046C70.2187 195.545 67.8808 197.44 67.1949 200.022C65.9349 200.345 64.829 201.046 64.003 201.986C57.5073 200.962 51.0256 199.924 44.5298 198.899C39.5601 198.113 34.9823 201.916 34.9683 206.954C34.9683 207.024 34.9683 207.08 34.9683 207.151C34.9823 212.189 39.5601 215.992 44.5298 215.206C50.7456 214.223 56.9753 213.227 63.191 212.245C64.087 213.901 65.7109 215.107 67.6148 215.458C68.5948 217.451 70.6387 218.812 73.0046 218.812H180.52C182.942 218.812 185.028 217.381 185.98 215.318C187.618 214.841 188.99 213.732 189.801 212.259C196.017 213.241 202.247 214.237 208.463 215.22C213.418 216.006 218.01 212.203 218.024 207.165C218.024 207.095 218.024 207.038 218.024 206.968C218.024 201.93 213.432 198.127 208.477 198.913L208.463 198.899Z" fill="#EEE8DE" style="fill:#EEE8DE;fill:color(display-p3 0.9333 0.9098 0.8706);fill-opacity:1;"/>
<path d="M179.974 217.788H72.4583C70.0084 217.788 67.7825 216.483 66.5926 214.35C64.8007 213.929 63.2607 212.834 62.2808 211.29L44.0956 214.181C41.4917 214.588 38.8318 213.845 36.8159 212.132C34.842 210.448 33.708 208.007 33.708 205.439V205.242C33.708 202.66 34.842 200.218 36.8159 198.534C38.8318 196.808 41.4777 196.064 44.0956 196.485L63.1907 199.517C64.0027 198.689 64.9826 198.085 66.0746 197.734C66.9846 194.998 69.5604 193.117 72.4583 193.117H179.974C182.983 193.117 185.587 195.082 186.427 197.959C187.281 198.324 188.051 198.843 188.695 199.503L207.79 196.471C210.394 196.05 213.054 196.808 215.056 198.52C217.03 200.204 218.164 202.646 218.164 205.228V205.425C218.164 208.007 217.03 210.448 215.056 212.132C213.04 213.859 210.394 214.602 207.79 214.181L189.605 211.29C188.737 212.624 187.435 213.648 185.923 214.167C184.775 216.385 182.466 217.788 179.96 217.788H179.974ZM63.0227 209.719L63.2607 210.154C64.0867 211.655 65.5146 212.694 67.1945 213.003L67.5445 213.073L67.6985 213.395C68.6085 215.22 70.4284 216.356 72.4443 216.356H179.96C182.018 216.356 183.907 215.15 184.775 213.269L184.915 212.974L185.237 212.89C186.679 212.469 187.911 211.487 188.625 210.168L188.863 209.733L208.014 212.778C210.212 213.129 212.438 212.497 214.132 211.052C215.784 209.635 216.736 207.586 216.736 205.439V205.242C216.736 203.095 215.784 201.046 214.132 199.629C212.438 198.183 210.212 197.552 208.014 197.903L188.149 201.06L187.883 200.766C187.253 200.05 186.455 199.503 185.573 199.18L185.209 199.053L185.125 198.675C184.565 196.261 182.438 194.577 179.96 194.577H72.4583C70.0644 194.577 67.9505 196.205 67.3345 198.52L67.2225 198.927L66.8166 199.025C65.7106 199.306 64.7307 199.91 63.9747 200.766L63.7087 201.06L43.8436 197.903C41.6457 197.552 39.4198 198.183 37.7258 199.629C36.0739 201.046 35.1219 203.095 35.1219 205.242V205.439C35.1219 207.586 36.0739 209.635 37.7258 211.052C39.4198 212.497 41.6597 213.129 43.8436 212.778L62.9947 209.733L63.0227 209.719Z" fill="#424243" style="fill:#424243;fill:color(display-p3 0.2588 0.2588 0.2627);fill-opacity:1;"/>
<path d="M73.9143 184.501C72.2063 184.501 70.5684 184.15 69.0005 183.448C67.4325 182.747 66.1446 181.736 65.1366 180.417C64.1287 179.098 63.5547 177.498 63.4427 175.632L63.4287 175.155C63.4287 174.144 63.6247 173.106 64.0027 172.068C64.3947 171.029 65.0106 170.061 65.8646 169.163C66.3406 168.643 66.9006 168.18 67.5585 167.759C69.2245 166.665 71.1144 166.117 73.2283 166.117C75.6502 166.117 77.9601 166.791 80.158 168.152V172.685C79.906 171.913 79.472 171.099 78.842 170.243C78.2121 169.387 77.4981 168.643 76.6861 168.026C75.8742 167.394 75.1042 167.086 74.3622 167.086L74.0402 167.1C72.6543 167.366 71.5904 168.18 70.8484 169.556C70.1064 170.931 69.7424 172.474 69.7424 174.201C69.7424 175.295 69.8964 176.376 70.2184 177.456C70.5404 178.537 71.0164 179.519 71.6883 180.389C72.3463 181.273 73.2003 181.975 74.2222 182.508C75.2582 183.042 76.4761 183.308 77.8901 183.308C78.2961 183.308 78.716 183.28 79.15 183.224C77.4701 184.066 75.7342 184.487 73.9283 184.487L73.9143 184.501Z" fill="#424243" style="fill:#424243;fill:color(display-p3 0.2588 0.2588 0.2627);fill-opacity:1;"/>
<path d="M106.575 184.557H101.563C100.569 184.557 99.7573 184.192 99.1273 183.463C98.4974 182.733 98.1754 181.849 98.1754 180.824V171.59C98.1754 170.44 97.8954 169.556 97.3354 168.924C96.7755 168.293 96.1455 167.97 95.4315 167.97C94.8995 167.97 94.3956 168.166 93.9056 168.545C93.4156 168.924 93.0096 169.514 92.6876 170.313C92.3656 171.113 92.1977 172.138 92.1977 173.401V184.543H83.742C84.568 184.431 85.128 184.15 85.4359 183.729C85.7439 183.308 85.8979 182.691 85.8979 181.891V159.55C85.8979 158.778 85.7299 158.189 85.38 157.796C85.044 157.403 84.484 157.15 83.728 157.024H92.1837V169.177C92.6176 168.222 93.3596 167.479 94.4236 166.973C95.4735 166.454 96.6215 166.202 97.8534 166.202C98.9454 166.202 99.9813 166.412 100.989 166.819C101.997 167.226 102.823 167.872 103.467 168.742C104.111 169.612 104.447 170.72 104.447 172.082V181.961C104.447 182.761 104.587 183.378 104.895 183.785C105.189 184.206 105.749 184.459 106.561 184.557H106.575Z" fill="#424243" style="fill:#424243;fill:color(display-p3 0.2588 0.2588 0.2627);fill-opacity:1;"/>
<path d="M138.312 184.557H129.856C130.57 184.459 131.116 184.22 131.48 183.841C131.844 183.449 132.026 182.887 132.026 182.157V168.559C132.026 167.815 131.844 167.24 131.48 166.861C131.116 166.482 130.584 166.23 129.856 166.131H138.312V184.571V184.557ZM135.162 164.602C134.28 164.602 133.538 164.293 132.922 163.69C132.306 163.072 132.012 162.328 132.012 161.444C132.012 160.56 132.306 159.817 132.922 159.185C133.524 158.554 134.266 158.245 135.162 158.245C136.044 158.245 136.786 158.554 137.402 159.185C138.004 159.817 138.312 160.56 138.312 161.444C138.312 162.328 138.004 163.072 137.388 163.69C136.772 164.307 136.03 164.602 135.162 164.602Z" fill="#424243" style="fill:#424243;fill:color(display-p3 0.2588 0.2588 0.2627);fill-opacity:1;"/>
<path d="M152.325 184.501C150.617 184.501 148.979 184.15 147.411 183.448C145.843 182.747 144.555 181.736 143.547 180.417C142.539 179.098 141.965 177.498 141.853 175.632L141.839 175.155C141.839 174.144 142.035 173.106 142.413 172.068C142.805 171.029 143.421 170.061 144.275 169.163C144.751 168.643 145.311 168.18 145.969 167.759C147.635 166.665 149.525 166.117 151.639 166.117C154.061 166.117 156.371 166.791 158.569 168.152V172.685C158.317 171.913 157.883 171.099 157.253 170.243C156.623 169.387 155.909 168.643 155.097 168.026C154.285 167.394 153.515 167.086 152.773 167.086L152.451 167.1C151.065 167.366 150.001 168.18 149.259 169.556C148.517 170.931 148.153 172.474 148.153 174.201C148.153 175.295 148.307 176.376 148.629 177.456C148.951 178.537 149.427 179.519 150.099 180.389C150.757 181.273 151.611 181.975 152.633 182.508C153.669 183.042 154.887 183.308 156.301 183.308C156.707 183.308 157.127 183.28 157.561 183.224C155.881 184.066 154.145 184.487 152.339 184.487L152.325 184.501Z" fill="#424243" style="fill:#424243;fill:color(display-p3 0.2588 0.2588 0.2627);fill-opacity:1;"/>
<path d="M172.33 184.641H172.12C170.342 184.641 168.676 184.276 167.164 183.547C165.638 182.817 164.42 181.779 163.496 180.431C162.572 179.084 162.11 177.484 162.11 175.604C162.11 173.794 162.502 172.18 163.286 170.776C164.07 169.373 165.176 168.279 166.618 167.479C168.06 166.679 169.768 166.272 171.756 166.272C173.492 166.272 175.06 166.595 176.474 167.226C177.888 167.872 179.022 168.826 179.89 170.131C180.758 171.422 181.248 173.064 181.387 175.029H169.404C169.068 175.029 168.83 175.099 168.704 175.253C168.578 175.407 168.522 175.618 168.522 175.899L168.536 176.235C168.676 177.667 169.082 178.832 169.74 179.744C170.398 180.656 171.252 181.315 172.302 181.736C173.338 182.157 174.486 182.368 175.718 182.368C177.048 182.368 178.42 182.157 179.834 181.722C178.462 182.873 177.16 183.659 175.928 184.052C174.71 184.445 173.52 184.641 172.358 184.641H172.33ZM174.122 174.046C174.514 174.046 174.766 173.934 174.892 173.695C175.004 173.471 175.074 173.162 175.074 172.797C175.074 172.068 174.948 171.254 174.71 170.398C174.472 169.528 174.108 168.77 173.604 168.138C173.114 167.493 172.484 167.156 171.728 167.128C171.112 167.128 170.594 167.324 170.188 167.703C169.418 168.433 168.886 169.528 168.592 170.973C168.466 171.618 168.396 172.32 168.396 173.064C168.396 173.302 168.438 173.527 168.508 173.737C168.578 173.948 168.802 174.06 169.166 174.06H174.136L174.122 174.046Z" fill="#424243" style="fill:#424243;fill:color(display-p3 0.2588 0.2588 0.2627);fill-opacity:1;"/>
<path d="M126.804 175.464C126.86 176.334 126.832 177.19 126.706 178.018C126.286 180.908 124.956 183.982 122.254 185.385C120.812 186.129 118.992 186.101 118.404 184.333C117.159 180.558 120 177.246 120.742 173.752C121.274 171.183 120.42 168.756 118.964 166.637C118.376 165.781 120.756 166.426 121.008 166.524C124.648 167.9 126.566 171.703 126.804 175.464Z" fill="#424243" style="fill:#424243;fill:color(display-p3 0.2588 0.2588 0.2627);fill-opacity:1;"/>
<path d="M116.823 167.296C118.11 169.387 117.956 171.857 117.229 174.102C116.683 175.786 115.801 177.372 115.521 179.14C115.269 180.796 115.577 182.438 116.165 183.996C116.193 184.08 116.291 184.291 116.333 184.501C116.403 184.81 116.361 185.133 115.885 185.147C112.021 185.273 109.823 181.358 109.109 177.877C108.997 177.358 108.927 176.839 108.885 176.362C108.703 174.144 109.137 171.899 110.089 169.892C110.817 168.363 111.895 166.721 113.505 166.005C114.247 165.682 114.933 165.739 115.521 166.033C116.039 166.3 116.473 166.749 116.823 167.31V167.296Z" fill="#424243" style="fill:#424243;fill:color(display-p3 0.2588 0.2588 0.2627);fill-opacity:1;"/>
<path d="M110.705 170.959C110.677 171.029 110.579 170.987 110.593 170.917C110.901 169.107 113.057 166.552 113.701 166.524C114.75 166.468 111.629 168.279 110.705 170.973V170.959Z" fill="#424243" style="fill:#424243;fill:color(display-p3 0.2588 0.2588 0.2627);fill-opacity:1;"/>
<path d="M118.908 182.761C118.74 180.179 120.224 178.228 120.882 176.362C120.896 176.306 120.98 176.334 120.966 176.39C120.42 179.014 119.272 180.165 119.426 182.34C119.524 183.687 118.964 183.533 118.908 182.761Z" fill="#424243" style="fill:#424243;fill:color(display-p3 0.2588 0.2588 0.2627);fill-opacity:1;"/>
<path d="M75.2444 144.983H60.349C61.413 144.815 62.183 144.464 62.6589 143.917C63.1349 143.37 63.3729 142.556 63.3729 141.475V109.465C63.3729 108.876 63.2749 108.441 63.0789 108.174C62.8829 107.908 62.4909 107.767 61.875 107.767H58.0391C56.3732 107.95 54.7353 108.693 53.1393 109.999C51.5434 111.304 50.3535 112.511 49.5415 113.633L51.6134 106.42H83.938L86.0099 113.633C85.1979 112.511 84.008 111.304 82.4261 109.999C80.8441 108.693 79.2062 107.95 77.5123 107.767H73.7044C73.0745 107.767 72.6685 107.894 72.4725 108.174C72.2765 108.441 72.1785 108.876 72.1785 109.465V141.475C72.1785 142.556 72.4165 143.384 72.8925 143.917C73.3685 144.464 74.1384 144.815 75.2024 144.983H75.2444Z" fill="#424243" style="fill:#424243;fill:color(display-p3 0.2588 0.2588 0.2627);fill-opacity:1;"/>
<path d="M96.8596 145.068C94.2837 145.068 92.0998 144.534 90.2939 143.468C88.222 142.233 87.186 140.423 87.186 138.051C87.186 136.774 87.494 135.693 88.096 134.823C88.698 133.939 89.5099 133.181 90.4899 132.564C91.4838 131.947 92.5758 131.413 93.7657 130.964C94.9557 130.515 96.1596 130.108 97.3776 129.729C99.3095 129.182 100.947 128.565 102.319 127.877C102.753 127.624 103.089 127.245 103.327 126.74C103.551 126.235 103.677 125.688 103.677 125.084C103.677 124.369 103.509 123.639 103.173 122.909C102.837 122.179 102.347 121.576 101.675 121.099C101.003 120.622 100.149 120.383 99.1275 120.383C97.6156 120.383 96.1036 121.029 94.5637 122.334C93.0238 123.639 91.4838 125.786 89.9159 128.789V122.236C92.7998 120.411 96.0337 119.387 99.6175 119.162L100.331 119.134C102.193 119.134 104.027 119.429 105.861 120.004C107.695 120.58 109.207 121.506 110.425 122.769C111.643 124.032 112.315 125.674 112.441 127.709V142.612C112.441 143.412 112.651 143.973 113.085 144.338C113.519 144.703 114.107 144.927 114.863 145.012H103.607V128.621C102.795 129.168 102.025 129.673 101.297 130.108C99.8135 130.922 98.5815 131.862 97.6296 132.929C96.5796 134.066 96.0336 135.862 95.9776 138.318C95.9776 139.735 96.3276 141.04 97.0276 142.247C97.7276 143.44 98.8615 144.24 100.415 144.647C99.3095 144.927 98.1336 145.068 96.8596 145.068Z" fill="#424243" style="fill:#424243;fill:color(display-p3 0.2588 0.2588 0.2627);fill-opacity:1;"/>
<path d="M130.178 145.124C126.636 145.124 123.234 144.52 119.972 143.327V137.363C120.868 138.879 121.918 140.1 123.136 141.054C124.34 142.008 125.6 142.696 126.916 143.131C128.232 143.566 129.478 143.777 130.682 143.777C131.55 143.777 132.348 143.678 133.104 143.454C133.86 143.243 134.49 142.878 135.022 142.373C135.54 141.868 135.806 141.321 135.806 140.731C135.806 140.381 135.694 140.016 135.442 139.651C134.868 138.781 132.81 137.686 129.268 136.367C127.098 135.553 125.04 134.627 123.094 133.602C120.168 132.059 118.712 130.08 118.712 127.694C118.712 126.347 119.132 125.112 119.972 123.962C120.812 122.825 121.834 121.871 123.052 121.113C124.27 120.355 125.474 119.864 126.692 119.625C128.134 119.373 129.618 119.232 131.158 119.232C134.658 119.232 138.046 119.836 141.335 121.029V126.838C140.509 125.702 139.585 124.663 138.592 123.737C137.584 122.811 136.506 122.067 135.344 121.506C134.182 120.959 132.936 120.678 131.606 120.678C130.906 120.678 130.192 120.776 129.45 120.959C127.63 121.506 126.72 122.376 126.72 123.527C126.72 124.453 127.364 125.295 128.652 126.067C130.01 126.824 131.508 127.484 133.146 128.059C135.022 128.719 136.786 129.547 138.438 130.515C140.089 131.497 141.307 132.915 142.077 134.795C142.329 135.497 142.469 136.199 142.469 136.9C142.469 138.556 141.867 140.072 140.663 141.433C139.459 142.794 137.906 143.777 136.016 144.366C134.196 144.885 132.25 145.138 130.192 145.138L130.178 145.124Z" fill="#424243" style="fill:#424243;fill:color(display-p3 0.2588 0.2588 0.2627);fill-opacity:1;"/>
<path d="M164.533 145.012H156.945C151.877 145.012 149.329 142.85 149.329 138.514V120.58H145.438V119.204H149.329V116.131C150.407 116.075 151.583 115.879 152.857 115.556C154.131 115.219 155.251 114.756 156.245 114.166C157.239 113.563 157.869 112.819 158.149 111.935V119.204H164.827V120.58H158.149L158.121 139.398C158.177 141.447 158.835 142.864 160.123 143.636C161.411 144.422 162.867 144.871 164.533 145.012Z" fill="#424243" style="fill:#424243;fill:color(display-p3 0.2588 0.2588 0.2627);fill-opacity:1;"/>
<path d="M168.578 155.691C168.06 155.691 167.542 155.649 167.01 155.579V150.33C168.116 151.635 169.376 152.295 170.79 152.295C172.078 152.295 173.296 151.818 174.458 150.849C175.62 149.895 176.53 148.716 177.216 147.341L178.21 145.264C178.49 144.661 178.63 144.071 178.63 143.524C178.63 142.752 178.42 141.966 178.028 141.166L171 124.355C170.482 123.021 169.81 121.927 168.984 121.043C168.158 120.159 166.996 119.555 165.512 119.218L174.472 119.19C175.83 119.19 177.006 119.583 177.972 120.355C178.952 121.127 179.666 122.137 180.156 123.4L183.137 131.006C183.375 131.526 183.669 131.778 184.019 131.778C184.369 131.778 184.691 131.526 184.985 131.006L188.597 123.485C189.073 122.657 189.311 121.857 189.311 121.085C189.311 120.088 188.751 119.471 187.631 119.232H195.247C194.029 119.457 193.021 119.934 192.223 120.664C191.425 121.394 190.753 122.306 190.193 123.386L178.504 148.239C177.818 149.685 177.02 150.962 176.082 152.084C175.144 153.207 174.066 154.091 172.834 154.737C171.616 155.382 170.202 155.705 168.62 155.705L168.578 155.691Z" fill="#424243" style="fill:#424243;fill:color(display-p3 0.2588 0.2588 0.2627);fill-opacity:1;"/>
<path d="M50.7593 178.916C53.3185 178.916 55.3931 176.836 55.3931 174.271C55.3931 171.705 53.3185 169.626 50.7593 169.626C48.2001 169.626 46.1255 171.705 46.1255 174.271C46.1255 176.836 48.2001 178.916 50.7593 178.916Z" fill="#424243" style="fill:#424243;fill:color(display-p3 0.2588 0.2588 0.2627);fill-opacity:1;"/>
<path d="M194.883 178.916C197.442 178.916 199.517 176.836 199.517 174.271C199.517 171.705 197.442 169.626 194.883 169.626C192.324 169.626 190.25 171.705 190.25 174.271C190.25 176.836 192.324 178.916 194.883 178.916Z" fill="#424243" style="fill:#424243;fill:color(display-p3 0.2588 0.2588 0.2627);fill-opacity:1;"/>
<path d="M166.604 54.2445C164.882 43.2986 154.649 35.8189 143.715 37.5309C143.645 37.5449 143.589 37.559 143.519 37.573C137.723 31.244 128.974 27.848 119.874 29.2794C110.719 30.7248 103.411 36.6889 99.841 44.5616C90.0694 47.1717 83.6577 56.8266 85.2536 67.0568C86.7796 76.7678 95.0112 83.7564 104.475 84.009L106.099 94.4076L153.487 86.9419L151.891 76.7819C161.732 74.1998 168.2 64.5309 166.59 54.2585L166.604 54.2445Z" fill="#EEE8DE" style="fill:#EEE8DE;fill:color(display-p3 0.9333 0.9098 0.8706);fill-opacity:1;"/>
<path d="M109.907 105.283C104.363 102 104.279 83.9528 104.279 83.9528C104.279 83.9528 124.018 85.5666 153.193 76.2485C153.193 76.2485 160.57 92.6534 152.367 99.8945C145.731 105.76 118.95 110.63 109.907 105.269V105.283Z" fill="#EEE8DE" style="fill:#EEE8DE;fill:color(display-p3 0.9333 0.9098 0.8706);fill-opacity:1;"/>
<path d="M119.272 108.736C114.233 108.736 109.739 108.02 106.869 106.322C101.633 103.22 100.975 88.7662 100.891 85.1036C91.3156 84.43 83.3779 77.1748 81.88 67.6041C80.2421 57.1774 86.5838 47.2699 96.6633 44.3931C100.513 36.1556 108.129 30.416 117.088 29.0127C125.978 27.6094 134.938 30.6827 141.111 37.2362C146.529 36.4363 151.933 37.7695 156.357 40.9971C160.837 44.2668 163.776 49.0943 164.63 54.5672C166.156 64.3484 160.669 73.7507 151.513 77.2169C152.927 80.7533 157.631 94.2532 150.155 100.863C145.535 104.947 130.92 108.736 119.272 108.736ZM121.33 30.0933C120 30.0933 118.656 30.1915 117.312 30.416C108.717 31.7632 101.437 37.3344 97.8253 45.2772L97.6853 45.586L97.3633 45.6702C87.8017 48.2242 81.768 57.5563 83.2939 67.3655C84.7219 76.4872 92.4355 83.3494 101.633 83.7002L102.319 83.7283L102.333 84.4159C102.389 90.5204 103.551 102.687 107.611 105.087C116.542 110.377 143.029 105.269 149.231 99.7823C152.311 97.0599 153.445 92.6254 152.591 86.5911C151.919 81.8619 150.253 77.8343 149.917 77.0765L149.609 76.3609L150.351 76.1083C159.283 73.0911 164.7 64.1239 163.23 54.7777C162.432 49.6696 159.689 45.179 155.531 42.1338C151.359 39.0886 146.263 37.8537 141.167 38.6535L140.593 38.7518L140.327 38.4711C135.386 33.0823 128.498 30.0933 121.33 30.0933Z" fill="#424243" style="fill:#424243;fill:color(display-p3 0.2588 0.2588 0.2627);fill-opacity:1;"/>
<path d="M101.633 83.8967C113.687 85.0475 125.894 83.2372 137.598 80.3183C137.696 80.2902 137.794 80.3463 137.822 80.4446C137.85 80.5428 137.794 80.641 137.696 80.6691C128.904 83.1951 119.832 84.9071 110.691 85.3983C107.597 85.5527 104.559 85.5948 101.451 85.3281C101.059 85.286 100.765 84.9352 100.807 84.5423C100.849 84.1353 101.227 83.8406 101.633 83.8967Z" fill="#424243" style="fill:#424243;fill:color(display-p3 0.2588 0.2588 0.2627);fill-opacity:1;"/>
<path d="M102.403 88.5838C109.053 89.4959 115.927 88.7662 122.506 87.405C122.716 87.3489 122.828 87.6997 122.59 87.7558C117.634 89.0749 112.539 89.945 107.387 90.1274C105.651 90.1836 103.957 90.1836 102.179 89.9871C101.787 89.945 101.507 89.5942 101.535 89.2012C101.577 88.7802 101.983 88.4855 102.403 88.5838Z" fill="#424243" style="fill:#424243;fill:color(display-p3 0.2588 0.2588 0.2627);fill-opacity:1;"/>
<path d="M102.585 63.4642C106.617 67.169 110.215 71.365 112.959 76.1222C113.421 76.9361 112.217 77.6518 111.727 76.852C109.235 72.1087 105.847 67.8286 102.067 64.0536C101.703 63.7168 102.221 63.1415 102.599 63.4783L102.585 63.4642Z" fill="#424243" style="fill:#424243;fill:color(display-p3 0.2588 0.2588 0.2627);fill-opacity:1;"/>
<path d="M144.149 57.2897C141.755 62.0891 139.908 67.2112 139.054 72.5017C138.998 72.8947 138.62 73.1753 138.228 73.1052C137.822 73.035 137.556 72.628 137.654 72.2351C137.976 70.8879 138.312 69.5548 138.76 68.2497C140.048 64.3625 141.769 60.6296 143.841 57.0932C143.953 56.8827 144.289 57.0652 144.177 57.2757L144.149 57.2897Z" fill="#424243" style="fill:#424243;fill:color(display-p3 0.2588 0.2588 0.2627);fill-opacity:1;"/>
<path d="M125.404 73.6384C122.772 66.6218 121.148 59.2123 121.064 51.7185C121.064 51.3677 121.596 51.3396 121.61 51.7045C121.862 57.2336 123.052 62.6785 124.774 67.9269C125.348 69.6811 125.992 71.4212 126.72 73.0911C127.084 73.9752 125.768 74.5366 125.39 73.6384H125.404Z" fill="#424243" style="fill:#424243;fill:color(display-p3 0.2588 0.2588 0.2627);fill-opacity:1;"/>
<path d="M96.9151 44.3089C99.435 43.6072 102.151 44.3229 104.321 45.6701C105.917 46.6665 107.317 48.1259 108.465 49.6275C108.759 49.9924 108.227 50.4695 107.905 50.1187L107.877 50.0906L106.827 48.9258C104.433 46.4981 100.849 44.6036 97.4051 45.6561C96.4812 46.021 95.9632 44.6317 96.9151 44.3089Z" fill="#424243" style="fill:#424243;fill:color(display-p3 0.2588 0.2588 0.2627);fill-opacity:1;"/>
<path d="M140.929 38.7097C139.067 38.9483 137.177 39.8744 135.791 41.1655C135.288 41.6005 134.868 42.1198 134.462 42.653C134.336 42.8074 134.112 42.8495 133.958 42.7232C133.804 42.6109 133.776 42.4004 133.874 42.232C135.386 39.7341 137.877 37.9238 140.761 37.2923C141.755 37.1239 141.951 38.6115 140.943 38.7097H140.929Z" fill="#424243" style="fill:#424243;fill:color(display-p3 0.2588 0.2588 0.2627);fill-opacity:1;"/>
<path d="M84.9179 205.158V204.737C84.9179 204.484 84.9039 204.33 84.8759 204.26C84.8479 204.19 84.7779 204.091 84.6519 203.979L84.3579 203.698C84.3999 203.432 84.4559 203.137 84.5259 202.842C84.5959 202.548 84.7359 202.127 84.9179 201.593L85.3659 201.467L85.9398 201.692C86.0378 201.734 86.1638 201.748 86.3178 201.762C86.4858 201.762 86.7658 201.776 87.1718 201.776H89.6357C90.2796 201.776 90.7696 201.874 91.1196 202.057C91.4696 202.239 91.7076 202.548 91.8476 202.983C91.9876 203.418 92.0576 204.035 92.0576 204.835C92.0576 205.551 92.0436 206.421 92.0156 207.417C91.9876 208.414 91.9596 209.157 91.9176 209.649H84.8339L84.8899 205.172L84.9179 205.158ZM90.3216 207.277V206.8C90.3216 206.21 90.3076 205.719 90.2796 205.354C90.2517 205.018 90.2097 204.765 90.1537 204.597C90.0977 204.428 89.9997 204.316 89.8737 204.26C89.7477 204.204 89.5377 204.162 89.2437 204.148H86.7098L86.8498 207.291H90.3216V207.277Z" fill="#424243" style="fill:#424243;fill:color(display-p3 0.2588 0.2588 0.2627);fill-opacity:1;"/>
<path d="M93.7093 207.08L94.1992 205.13C94.2692 204.919 94.2972 204.751 94.2972 204.611C94.2972 204.526 94.2692 204.442 94.1992 204.372C94.1432 204.302 94.0172 204.204 93.8213 204.077L92.9253 203.488C93.1493 202.828 93.4573 202.169 93.8493 201.481L94.1572 201.383C94.2692 201.439 94.3532 201.481 94.4092 201.523C94.7312 201.692 94.9972 201.832 95.2212 201.958C95.6972 202.239 96.0192 202.52 96.2152 202.772C96.4111 203.039 96.4951 203.348 96.4951 203.713C96.4951 204.077 96.4251 204.47 96.2711 204.905C96.0752 205.537 95.8512 206.196 95.5572 206.884L94.0872 207.235L93.6953 207.08H93.7093Z" fill="#424243" style="fill:#424243;fill:color(display-p3 0.2588 0.2588 0.2627);fill-opacity:1;"/>
<path d="M112.665 202.45C112.861 202.73 112.945 203.123 112.945 203.614C112.945 204.077 112.833 204.807 112.623 205.818C112.399 206.814 112.189 207.586 111.965 208.105C111.489 208.526 110.747 208.975 109.711 209.466C108.689 209.943 107.597 210.336 106.477 210.645H105.931V208.386C106.813 208.133 107.527 207.894 108.073 207.684L107.163 204.625C107.093 204.4 107.023 204.246 106.953 204.148C106.883 204.063 106.687 203.923 106.393 203.741L105.973 203.474C106.197 202.758 106.463 202.113 106.743 201.523L107.135 201.425C107.401 201.537 107.625 201.636 107.779 201.72C108.199 201.93 108.507 202.169 108.689 202.464C108.871 202.744 109.025 203.193 109.137 203.783C109.263 204.414 109.459 205.509 109.711 207.08C110.243 206.856 110.593 206.561 110.775 206.21C110.957 205.86 111.055 205.34 111.069 204.653C111.069 204.414 111.041 204.26 110.999 204.176C110.957 204.091 110.859 204.007 110.677 203.923L109.851 203.516C110.131 202.688 110.383 202 110.607 201.467H110.915C111.195 201.565 111.433 201.65 111.629 201.734C112.119 201.93 112.469 202.155 112.651 202.436L112.665 202.45Z" fill="#424243" style="fill:#424243;fill:color(display-p3 0.2588 0.2588 0.2627);fill-opacity:1;"/>
<path d="M114.456 204.47C114.442 204.26 114.414 204.12 114.372 204.035C114.344 203.951 114.26 203.825 114.12 203.67L113.812 203.292C114.008 202.632 114.274 202.029 114.61 201.495L115.002 201.439C115.198 201.523 115.436 201.678 115.73 201.874C116.024 202.099 116.22 202.337 116.318 202.604C116.416 202.871 116.472 203.292 116.458 203.853L116.36 207.319C116.598 207.305 116.892 207.263 117.214 207.207C117.536 207.151 117.788 207.095 117.97 207.038C118.362 206.926 118.67 206.8 118.866 206.645C119.076 206.491 119.216 206.295 119.3 206.042C119.384 205.789 119.426 205.439 119.426 205.004C119.426 204.639 119.398 204.4 119.328 204.288C119.272 204.176 119.132 204.091 118.922 204.049L117.354 203.755C117.48 202.899 117.634 202.127 117.83 201.467H118.25C118.642 201.509 119.132 201.608 119.72 201.748C120.224 201.86 120.588 202.071 120.812 202.379C121.036 202.688 121.148 203.123 121.148 203.698C121.148 204.288 121.036 205.13 120.826 206.224C120.602 207.319 120.406 208.091 120.196 208.526C119.72 208.821 119.048 209.087 118.208 209.34C117.368 209.592 116.486 209.761 115.604 209.859H114.904L114.428 204.512L114.456 204.47Z" fill="#424243" style="fill:#424243;fill:color(display-p3 0.2588 0.2588 0.2627);fill-opacity:1;"/>
<path d="M122.282 209.101C122.352 208.512 122.548 207.389 122.856 205.705C122.926 205.34 122.982 205.046 123.024 204.793C123.052 204.625 123.066 204.498 123.066 204.414C123.066 204.344 123.052 204.288 123.01 204.232C122.968 204.19 122.884 204.119 122.744 204.035L122.254 203.741C122.324 202.941 122.478 202.197 122.674 201.509L122.996 201.411L123.64 201.65C124.004 201.79 124.256 201.874 124.396 201.916C124.522 201.944 124.662 201.972 124.802 201.972C124.928 201.972 125.278 201.93 125.824 201.86C125.922 201.846 126.118 201.832 126.412 201.79C126.706 201.748 126.944 201.734 127.112 201.734C127.644 201.734 128.092 201.832 128.456 202.043C128.82 202.253 129.086 202.548 129.226 202.927C129.352 203.221 129.436 203.6 129.464 204.021C129.506 204.442 129.52 204.99 129.52 205.663C129.52 206.463 129.506 207.193 129.478 207.838L129.324 209.635H125.488L125.586 207.263H127.826C127.826 206.786 127.798 206.14 127.728 205.34C127.7 204.975 127.644 204.695 127.588 204.512C127.518 204.33 127.406 204.204 127.252 204.134C127.098 204.063 126.86 204.021 126.552 204.021C126.104 204.021 125.558 204.049 124.914 204.105C124.858 204.653 124.802 205.172 124.76 205.677C124.718 206.168 124.676 206.603 124.634 206.968L124.41 209.48C123.878 209.621 123.388 209.705 122.968 209.733H122.296L122.268 209.101H122.282Z" fill="#424243" style="fill:#424243;fill:color(display-p3 0.2588 0.2588 0.2627);fill-opacity:1;"/>
<path d="M97.3215 209.101C97.3914 208.512 97.5874 207.389 97.8954 205.705C97.9654 205.34 98.0214 205.046 98.0634 204.793C98.0914 204.625 98.1054 204.498 98.1054 204.414C98.1054 204.344 98.0914 204.288 98.0494 204.232C98.0074 204.19 97.9234 204.119 97.7834 204.035L97.2935 203.741C97.3635 202.941 97.5175 202.197 97.7134 201.509L98.0354 201.411L98.6794 201.65C99.0434 201.79 99.2954 201.874 99.4354 201.916C99.5614 201.944 99.7014 201.972 99.8413 201.972C99.9673 201.972 100.317 201.93 100.863 201.86C100.961 201.846 101.157 201.832 101.451 201.79C101.745 201.748 101.983 201.734 102.151 201.734C102.683 201.734 103.131 201.832 103.495 202.043C103.859 202.253 104.125 202.548 104.265 202.927C104.391 203.221 104.475 203.6 104.503 204.021C104.545 204.442 104.559 204.99 104.559 205.663C104.559 206.463 104.545 207.193 104.517 207.838L104.363 209.635H100.527L100.625 207.263H102.865C102.865 206.786 102.837 206.14 102.767 205.34C102.739 204.975 102.683 204.695 102.627 204.512C102.557 204.33 102.445 204.204 102.291 204.134C102.137 204.063 101.899 204.021 101.591 204.021C101.143 204.021 100.597 204.049 99.9533 204.105C99.8973 204.653 99.8413 205.172 99.8134 205.677C99.7714 206.168 99.7293 206.603 99.6874 206.968L99.4634 209.48C98.9314 209.621 98.4414 209.705 98.0214 209.733H97.3495L97.3215 209.101Z" fill="#424243" style="fill:#424243;fill:color(display-p3 0.2588 0.2588 0.2627);fill-opacity:1;"/>
<path d="M137.499 208.638C137.499 207.052 137.485 205.958 137.457 205.368C137.443 204.905 137.373 204.597 137.233 204.428C137.093 204.26 136.841 204.176 136.491 204.176H134.504C134.35 204.176 134.014 204.091 133.496 203.937C133.566 203.067 133.692 202.239 133.874 201.467L134.84 201.299L135.092 201.579C135.176 201.678 135.26 201.748 135.33 201.776C135.4 201.804 135.526 201.818 135.722 201.818H136.939C137.597 201.818 138.087 201.902 138.451 202.085C138.801 202.267 139.053 202.562 139.193 202.983C139.333 203.404 139.417 204.007 139.431 204.793C139.431 205.467 139.417 206.267 139.375 207.193C139.333 208.119 139.291 208.905 139.235 209.536L138.143 209.817H137.541C137.541 209.368 137.541 208.975 137.527 208.652L137.499 208.638Z" fill="#424243" style="fill:#424243;fill:color(display-p3 0.2588 0.2588 0.2627);fill-opacity:1;"/>
<path d="M146.193 208.386C146.179 206.87 146.151 205.86 146.123 205.354C146.109 205.032 146.053 204.793 145.983 204.625C145.913 204.456 145.801 204.344 145.647 204.274C145.493 204.204 145.269 204.176 144.975 204.176H143.127L143.141 209.522L141.685 209.775H141.153C141.167 208.596 141.209 207.066 141.279 205.172L141.293 204.709C141.293 204.484 141.279 204.344 141.237 204.274C141.209 204.204 141.125 204.105 140.999 203.993L140.691 203.713C140.733 203.432 140.789 203.137 140.873 202.828C140.957 202.52 141.097 202.113 141.265 201.622L141.713 201.495L142.287 201.72C142.385 201.762 142.483 201.776 142.609 201.79C142.721 201.804 143.029 201.804 143.505 201.804H145.479C146.165 201.804 146.683 201.902 147.047 202.099C147.397 202.295 147.649 202.618 147.789 203.081C147.929 203.544 147.999 204.232 147.999 205.13C147.999 205.775 147.985 206.519 147.957 207.361C147.929 208.203 147.887 208.933 147.845 209.536L146.739 209.831H146.193C146.193 209.607 146.179 209.129 146.179 208.4L146.193 208.386Z" fill="#424243" style="fill:#424243;fill:color(display-p3 0.2588 0.2588 0.2627);fill-opacity:1;"/>
<path d="M149.301 207.263H153.137V206.267C153.137 206.014 153.137 205.775 153.123 205.537C153.109 205.2 153.067 204.933 153.025 204.765C152.983 204.583 152.899 204.442 152.759 204.33C152.619 204.218 152.409 204.162 152.115 204.162H150.407C150.253 204.162 149.917 204.077 149.399 203.923C149.469 203.053 149.595 202.225 149.777 201.453L150.743 201.285L150.995 201.565C151.079 201.664 151.163 201.734 151.233 201.762C151.303 201.79 151.429 201.804 151.625 201.804H152.591C153.221 201.804 153.697 201.888 154.033 202.071C154.369 202.253 154.607 202.548 154.747 202.969C154.887 203.39 154.957 203.979 154.957 204.751C154.957 205.34 154.915 206.182 154.845 207.263H155.839L155.713 209.635H149.189L149.315 207.263H149.301Z" fill="#424243" style="fill:#424243;fill:color(display-p3 0.2588 0.2588 0.2627);fill-opacity:1;"/>
<path d="M156.721 209.101C156.791 208.512 156.987 207.389 157.295 205.705C157.365 205.34 157.421 205.046 157.463 204.793C157.491 204.625 157.505 204.498 157.505 204.414C157.505 204.344 157.491 204.288 157.449 204.232C157.407 204.19 157.323 204.119 157.183 204.035L156.693 203.741C156.763 202.941 156.917 202.197 157.113 201.509L157.435 201.411L158.079 201.65C158.443 201.79 158.695 201.874 158.835 201.916C158.961 201.944 159.101 201.972 159.241 201.972C159.367 201.972 159.717 201.93 160.263 201.86C160.361 201.846 160.557 201.832 160.851 201.79C161.145 201.748 161.383 201.734 161.551 201.734C162.083 201.734 162.531 201.832 162.895 202.043C163.259 202.253 163.525 202.548 163.665 202.927C163.791 203.221 163.875 203.6 163.903 204.021C163.945 204.442 163.959 204.99 163.959 205.663C163.959 206.463 163.945 207.193 163.917 207.838L163.763 209.635H159.927L160.025 207.263H162.265C162.265 206.786 162.237 206.14 162.167 205.34C162.139 204.975 162.083 204.695 162.013 204.512C161.943 204.33 161.831 204.204 161.677 204.134C161.523 204.063 161.285 204.021 160.977 204.021C160.529 204.021 159.983 204.049 159.339 204.105C159.283 204.653 159.227 205.172 159.199 205.677C159.157 206.168 159.115 206.603 159.073 206.968L158.849 209.48C158.317 209.621 157.827 209.705 157.407 209.733H156.735L156.707 209.101H156.721Z" fill="#424243" style="fill:#424243;fill:color(display-p3 0.2588 0.2588 0.2627);fill-opacity:1;"/>
</g>
<defs>
<clipPath id="clip0_3187_169">
<rect width="247" height="227" fill="white" style="fill:white;fill:white;fill-opacity:1;"/>
</clipPath>
</defs>
</svg>
