<svg width="186" height="170" viewBox="0 0 186 170" fill="none" xmlns="http://www.w3.org/2000/svg">
<g clip-path="url(#clip0_2_162)">
<path d="M180.955 110.849H171.464C174.158 102.671 175.618 93.9378 175.618 84.8581C175.618 39.0337 138.487 1.88708 92.6775 1.88708C46.8682 1.88708 9.73701 39.0337 9.73701 84.8581C9.73701 93.9378 11.1972 102.671 13.8914 110.849H4.37891H1.87891V113.349V165.613V168.113H4.37891H180.955H183.455V165.613V113.349V110.849H180.955Z" fill="white" stroke="#EED6AE" style="fill:white;fill:white;fill-opacity:1;stroke:#EED6AE;stroke:color(display-p3 0.9333 0.8388 0.6813);stroke-opacity:1;" stroke-width="5"/>
<path d="M164.273 158.719H172.341V120.906H151.792C159.135 109.745 163.411 96.3976 163.411 82.0416C163.411 42.9569 131.737 11.2814 92.6777 11.2814C53.6078 11.2814 21.9443 42.9674 21.9443 82.0416C21.9443 96.3976 26.22 109.755 33.5634 120.906H13.0146V158.719H21.0303H164.283H164.273Z" fill="white" style="fill:white;fill:white;fill-opacity:1;"/>
<path d="M172.351 159.255H164.283C163.989 159.255 163.747 159.013 163.747 158.719C163.747 158.424 163.989 158.183 164.283 158.183H171.815V121.442H151.802C151.603 121.442 151.424 121.337 151.33 121.158C151.235 120.979 151.246 120.769 151.351 120.611C158.894 109.156 162.886 95.809 162.886 82.0416C162.886 43.3142 131.39 11.8173 92.6881 11.8173C53.9754 11.8173 22.4905 43.3247 22.4905 82.0416C22.4905 95.809 26.4826 109.156 34.0255 120.611C34.1306 120.78 34.1411 120.99 34.0465 121.158C33.952 121.337 33.7734 121.442 33.5738 121.442H13.5608V158.183H21.0407C21.3349 158.183 21.5765 158.424 21.5765 158.719C21.5765 159.013 21.3349 159.255 21.0407 159.255H13.025C12.7309 159.255 12.4893 159.013 12.4893 158.719V120.906C12.4893 120.611 12.7309 120.37 13.025 120.37H32.5862C25.2744 108.925 21.4189 95.6934 21.4189 82.0416C21.4189 42.7257 53.3871 10.7349 92.6986 10.7349C132 10.7349 163.978 42.7152 163.978 82.0416C163.978 95.6934 160.123 108.925 152.811 120.37H172.372C172.666 120.37 172.908 120.611 172.908 120.906V158.719C172.908 159.013 172.666 159.255 172.372 159.255H172.351Z" fill="#424243" style="fill:#424243;fill:color(display-p3 0.2588 0.2588 0.2627);fill-opacity:1;"/>
<path d="M156.435 148.955C151.561 149.723 146.697 150.5 141.822 151.267C141.297 150.668 140.624 150.206 139.868 149.933C139.395 147.936 137.609 146.444 135.466 146.444H54.7841C52.6935 146.444 50.9391 147.862 50.4243 149.796C49.4789 150.038 48.6489 150.563 48.0291 151.267C43.1546 150.5 38.2905 149.723 33.416 148.955C29.6865 148.367 26.2512 151.215 26.2407 154.988C26.2407 155.04 26.2407 155.082 26.2407 155.135C26.2512 158.908 29.6865 161.756 33.416 161.167C38.0804 160.432 42.7553 159.686 47.4198 158.95C48.0921 160.19 49.3108 161.094 50.7395 161.357C51.4749 162.849 53.0087 163.868 54.7841 163.868H135.466C137.284 163.868 138.849 162.796 139.563 161.251C140.793 160.894 141.822 160.064 142.431 158.96C147.096 159.696 151.771 160.442 156.435 161.178C160.154 161.766 163.6 158.918 163.61 155.145C163.61 155.093 163.61 155.051 163.61 154.998C163.61 151.225 160.165 148.377 156.446 148.966L156.435 148.955Z" fill="#EEE8DE" style="fill:#EEE8DE;fill:color(display-p3 0.9333 0.9098 0.8706);fill-opacity:1;"/>
<path d="M135.057 163.101H54.3746C52.5361 163.101 50.8658 162.124 49.9728 160.526C48.6281 160.211 47.4725 159.391 46.7371 158.235L33.0905 160.4C31.1365 160.705 29.1404 160.148 27.6276 158.866C26.1464 157.605 25.2954 155.776 25.2954 153.853V153.706C25.2954 151.772 26.1464 149.943 27.6276 148.682C29.1404 147.389 31.126 146.832 33.0905 147.148L47.42 149.418C48.0293 148.798 48.7647 148.346 49.5841 148.083C50.2669 146.034 52.2 144.625 54.3746 144.625H135.057C137.315 144.625 139.269 146.097 139.9 148.251C140.541 148.524 141.118 148.913 141.602 149.407L155.931 147.137C157.885 146.822 159.881 147.389 161.383 148.672C162.865 149.933 163.716 151.761 163.716 153.695V153.842C163.716 155.776 162.865 157.605 161.383 158.866C159.871 160.158 157.885 160.715 155.931 160.4L142.284 158.235C141.633 159.234 140.656 160.001 139.522 160.39C138.66 162.05 136.927 163.101 135.046 163.101H135.057ZM47.2939 157.058L47.4725 157.384C48.0923 158.508 49.1639 159.286 50.4245 159.517L50.6872 159.57L50.8027 159.812C51.4856 161.178 52.8513 162.029 54.3641 162.029H135.046C136.59 162.029 138.009 161.125 138.66 159.717L138.765 159.496L139.007 159.433C140.089 159.118 141.013 158.382 141.549 157.394L141.728 157.069L156.099 159.349C157.749 159.612 159.419 159.139 160.69 158.057C161.93 156.995 162.644 155.461 162.644 153.853V153.706C162.644 152.098 161.93 150.563 160.69 149.502C159.419 148.419 157.749 147.946 156.099 148.209L141.192 150.574L140.992 150.353C140.52 149.817 139.921 149.407 139.259 149.166L138.986 149.071L138.923 148.787C138.502 146.98 136.906 145.718 135.046 145.718H54.3746C52.5782 145.718 50.9918 146.938 50.5296 148.672L50.4455 148.976L50.1409 149.05C49.3109 149.26 48.5756 149.712 48.0083 150.353L47.8087 150.574L32.9014 148.209C31.252 147.946 29.5816 148.419 28.3105 149.502C27.0708 150.563 26.3565 152.098 26.3565 153.706V153.853C26.3565 155.461 27.0708 156.995 28.3105 158.057C29.5816 159.139 31.2625 159.612 32.9014 159.349L47.2729 157.069L47.2939 157.058Z" fill="#424243" style="fill:#424243;fill:color(display-p3 0.2588 0.2588 0.2627);fill-opacity:1;"/>
<path d="M55.4672 138.173C54.1856 138.173 52.9564 137.91 51.7798 137.384C50.6032 136.859 49.6367 136.102 48.8803 135.114C48.1239 134.126 47.6932 132.928 47.6091 131.531L47.5986 131.173C47.5986 130.417 47.7457 129.639 48.0294 128.861C48.3235 128.084 48.7858 127.358 49.4266 126.686C49.7838 126.297 50.204 125.95 50.6978 125.635C51.9479 124.815 53.3661 124.405 54.9525 124.405C56.7699 124.405 58.5033 124.91 60.1527 125.929V129.324C59.9636 128.746 59.6379 128.136 59.1652 127.495C58.6924 126.854 58.1566 126.297 57.5473 125.835C56.938 125.362 56.3602 125.13 55.8034 125.13L55.5618 125.141C54.5217 125.341 53.7233 125.95 53.1665 126.98C52.6097 128.01 52.3366 129.166 52.3366 130.459C52.3366 131.278 52.4522 132.088 52.6938 132.897C52.9354 133.706 53.2926 134.442 53.7969 135.093C54.2906 135.755 54.9315 136.281 55.6984 136.68C56.4758 137.08 57.3897 137.279 58.4508 137.279C58.7555 137.279 59.0706 137.258 59.3963 137.216C58.1356 137.847 56.833 138.162 55.4777 138.162L55.4672 138.173Z" fill="#424243" style="fill:#424243;fill:color(display-p3 0.2588 0.2588 0.2627);fill-opacity:1;"/>
<path d="M79.9765 138.215H76.2155C75.4696 138.215 74.8603 137.941 74.3876 137.395C73.9148 136.848 73.6732 136.186 73.6732 135.419V128.504C73.6732 127.642 73.4631 126.98 73.0429 126.507C72.6227 126.034 72.1499 125.792 71.6141 125.792C71.2149 125.792 70.8367 125.94 70.469 126.223C70.1013 126.507 69.7967 126.949 69.5551 127.548C69.3134 128.147 69.1874 128.914 69.1874 129.86V138.204H62.842C63.4619 138.12 63.8821 137.91 64.1132 137.595C64.3443 137.279 64.4599 136.817 64.4599 136.218V119.487C64.4599 118.909 64.3338 118.467 64.0712 118.173C63.8191 117.879 63.3988 117.69 62.8315 117.595H69.1769V126.696C69.5025 125.982 70.0593 125.425 70.8577 125.046C71.6456 124.657 72.5071 124.468 73.4316 124.468C74.251 124.468 75.0284 124.626 75.7848 124.931C76.5412 125.235 77.161 125.719 77.6443 126.37C78.1275 127.022 78.3797 127.852 78.3797 128.872V136.27C78.3797 136.869 78.4847 137.332 78.7158 137.637C78.9364 137.952 79.3567 138.141 79.966 138.215H79.9765Z" fill="#424243" style="fill:#424243;fill:color(display-p3 0.2588 0.2588 0.2627);fill-opacity:1;"/>
<path d="M103.793 138.215H97.4473C97.983 138.141 98.3928 137.962 98.6659 137.679C98.939 137.384 99.0756 136.964 99.0756 136.418V126.234C99.0756 125.677 98.939 125.246 98.6659 124.962C98.3928 124.678 97.9936 124.489 97.4473 124.416H103.793V138.225V138.215ZM101.429 123.27C100.767 123.27 100.21 123.039 99.748 122.587C99.2857 122.125 99.0651 121.568 99.0651 120.906C99.0651 120.243 99.2857 119.686 99.748 119.214C100.2 118.741 100.756 118.509 101.429 118.509C102.091 118.509 102.647 118.741 103.11 119.214C103.561 119.686 103.793 120.243 103.793 120.906C103.793 121.568 103.561 122.125 103.099 122.587C102.637 123.049 102.08 123.27 101.429 123.27Z" fill="#424243" style="fill:#424243;fill:color(display-p3 0.2588 0.2588 0.2627);fill-opacity:1;"/>
<path d="M114.309 138.173C113.027 138.173 111.798 137.91 110.621 137.384C109.445 136.859 108.478 136.102 107.722 135.114C106.965 134.126 106.534 132.928 106.45 131.531L106.44 131.173C106.44 130.417 106.587 129.639 106.871 128.861C107.165 128.084 107.627 127.358 108.268 126.686C108.625 126.297 109.045 125.95 109.539 125.635C110.789 124.815 112.207 124.405 113.794 124.405C115.611 124.405 117.345 124.91 118.994 125.929V129.324C118.805 128.746 118.479 128.136 118.006 127.495C117.534 126.854 116.998 126.297 116.389 125.835C115.779 125.362 115.202 125.13 114.645 125.13L114.403 125.141C113.363 125.341 112.565 125.95 112.008 126.98C111.451 128.01 111.178 129.166 111.178 130.459C111.178 131.278 111.293 132.088 111.535 132.897C111.777 133.706 112.134 134.442 112.638 135.093C113.132 135.755 113.773 136.281 114.54 136.68C115.317 137.08 116.231 137.279 117.292 137.279C117.597 137.279 117.912 137.258 118.238 137.216C116.977 137.847 115.674 138.162 114.319 138.162L114.309 138.173Z" fill="#424243" style="fill:#424243;fill:color(display-p3 0.2588 0.2588 0.2627);fill-opacity:1;"/>
<path d="M129.321 138.278H129.163C127.829 138.278 126.579 138.004 125.444 137.458C124.299 136.911 123.385 136.134 122.692 135.125C121.999 134.116 121.652 132.918 121.652 131.51C121.652 130.154 121.946 128.945 122.534 127.894C123.123 126.843 123.953 126.024 125.035 125.425C126.117 124.826 127.398 124.521 128.89 124.521C130.193 124.521 131.369 124.763 132.43 125.235C133.492 125.719 134.342 126.434 134.994 127.411C135.645 128.378 136.013 129.607 136.118 131.079H127.125C126.873 131.079 126.694 131.131 126.6 131.247C126.505 131.362 126.463 131.52 126.463 131.73L126.474 131.983C126.579 133.055 126.884 133.927 127.377 134.61C127.871 135.293 128.512 135.787 129.3 136.102C130.077 136.418 130.939 136.575 131.863 136.575C132.861 136.575 133.891 136.418 134.952 136.092C133.922 136.954 132.945 137.542 132.021 137.836C131.107 138.131 130.214 138.278 129.342 138.278H129.321ZM130.666 130.343C130.96 130.343 131.149 130.259 131.243 130.08C131.327 129.912 131.38 129.681 131.38 129.408C131.38 128.861 131.285 128.252 131.107 127.611C130.928 126.959 130.655 126.392 130.277 125.919C129.909 125.435 129.436 125.183 128.869 125.162C128.407 125.162 128.018 125.309 127.714 125.593C127.136 126.139 126.737 126.959 126.516 128.041C126.421 128.525 126.369 129.05 126.369 129.607C126.369 129.786 126.4 129.954 126.453 130.112C126.505 130.269 126.673 130.354 126.947 130.354H130.676L130.666 130.343Z" fill="#424243" style="fill:#424243;fill:color(display-p3 0.2588 0.2588 0.2627);fill-opacity:1;"/>
<path d="M95.1568 131.405C95.1989 132.056 95.1779 132.697 95.0833 133.317C94.7681 135.482 93.7701 137.784 91.7426 138.835C90.6605 139.392 89.2948 139.371 88.8536 138.047C87.9186 135.219 90.0512 132.739 90.608 130.122C91.0072 128.199 90.3663 126.381 89.2738 124.794C88.8325 124.153 90.6185 124.636 90.8076 124.71C93.539 125.74 94.9783 128.588 95.1568 131.405Z" fill="#424243" style="fill:#424243;fill:color(display-p3 0.2588 0.2588 0.2627);fill-opacity:1;"/>
<path d="M87.6663 125.288C88.6328 126.854 88.5173 128.704 87.971 130.385C87.5613 131.646 86.8994 132.834 86.6893 134.158C86.5002 135.398 86.7313 136.628 87.1726 137.794C87.1936 137.857 87.2671 138.015 87.2986 138.173C87.3512 138.404 87.3196 138.646 86.9624 138.656C84.0629 138.751 82.4136 135.819 81.8778 133.212C81.7938 132.823 81.7412 132.434 81.7097 132.077C81.5731 130.417 81.8988 128.735 82.6132 127.232C83.1595 126.087 83.9684 124.857 85.1765 124.321C85.7333 124.079 86.2481 124.121 86.6893 124.342C87.078 124.542 87.4037 124.878 87.6663 125.299V125.288Z" fill="#424243" style="fill:#424243;fill:color(display-p3 0.2588 0.2588 0.2627);fill-opacity:1;"/>
<path d="M83.0758 128.031C83.0548 128.084 82.9812 128.052 82.9917 127.999C83.2229 126.644 84.8407 124.731 85.324 124.71C86.1119 124.668 83.7692 126.024 83.0758 128.042V128.031Z" fill="#424243" style="fill:#424243;fill:color(display-p3 0.2588 0.2588 0.2627);fill-opacity:1;"/>
<path d="M89.232 136.869C89.106 134.936 90.2196 133.475 90.7133 132.077C90.7238 132.035 90.7869 132.056 90.7764 132.098C90.3666 134.063 89.5052 134.925 89.6207 136.554C89.6943 137.563 89.2741 137.448 89.232 136.869Z" fill="#424243" style="fill:#424243;fill:color(display-p3 0.2588 0.2588 0.2627);fill-opacity:1;"/>
<path d="M56.4653 108.578H45.2875C46.0859 108.452 46.6637 108.189 47.0209 107.779C47.3781 107.369 47.5567 106.76 47.5567 105.951V81.9785C47.5567 81.5371 47.4831 81.2113 47.3361 81.0116C47.189 80.8119 46.8948 80.7068 46.4326 80.7068H43.5541C42.3039 80.8435 41.0748 81.4005 39.8772 82.3778C38.6795 83.3552 37.7866 84.259 37.1772 85.0998L38.7321 79.6979H62.9892L64.544 85.0998C63.9347 84.259 63.0417 83.3552 61.8546 82.3778C60.6675 81.4005 59.4384 80.8435 58.1672 80.7068H55.3097C54.837 80.7068 54.5323 80.8014 54.3852 81.0116C54.2382 81.2113 54.1646 81.5371 54.1646 81.9785V105.951C54.1646 106.76 54.3432 107.38 54.7004 107.779C55.0576 108.189 55.6354 108.452 56.4338 108.578H56.4653Z" fill="#424243" style="fill:#424243;fill:color(display-p3 0.2588 0.2588 0.2627);fill-opacity:1;"/>
<path d="M72.6856 108.641C70.7526 108.641 69.1137 108.242 67.7585 107.443C66.2037 106.518 65.4263 105.162 65.4263 103.386C65.4263 102.43 65.6574 101.621 66.1091 100.969C66.5609 100.307 67.1702 99.7395 67.9056 99.2771C68.6515 98.8147 69.4709 98.4153 70.3638 98.079C71.2568 97.7427 72.1603 97.4379 73.0743 97.1542C74.524 96.7443 75.7532 96.2819 76.7827 95.7669C77.1084 95.5778 77.3605 95.294 77.5391 94.9157C77.7072 94.5373 77.8017 94.1275 77.8017 93.6756C77.8017 93.1396 77.6757 92.5931 77.4235 92.0466C77.1714 91.5001 76.8037 91.0482 76.2994 90.6909C75.7952 90.3335 75.1543 90.1549 74.3874 90.1549C73.2529 90.1549 72.1183 90.6383 70.9627 91.6157C69.8071 92.5931 68.6515 94.201 67.4748 96.4501V91.5421C69.639 90.1759 72.0657 89.4087 74.7551 89.2406L75.2909 89.2195C76.6881 89.2195 78.0644 89.4402 79.4406 89.8711C80.8168 90.302 81.9514 90.9956 82.8654 91.9415C83.7793 92.8873 84.2836 94.117 84.3782 95.6408V106.802C84.3782 107.401 84.5357 107.821 84.8614 108.095C85.1871 108.368 85.6283 108.536 86.1956 108.599H77.7492V96.3239C77.1399 96.7338 76.5621 97.1122 76.0158 97.4379C74.9022 98.0475 73.9777 98.7516 73.2634 99.5504C72.4754 100.402 72.0657 101.747 72.0237 103.586C72.0237 104.647 72.2863 105.625 72.8116 106.529C73.3369 107.422 74.1878 108.021 75.354 108.326C74.524 108.536 73.6416 108.641 72.6856 108.641Z" fill="#424243" style="fill:#424243;fill:color(display-p3 0.2588 0.2588 0.2627);fill-opacity:1;"/>
<path d="M97.6889 108.683C95.0311 108.683 92.4782 108.231 90.0304 107.338V102.871C90.7028 104.006 91.4907 104.921 92.4047 105.635C93.3082 106.35 94.2537 106.865 95.2412 107.191C96.2287 107.517 97.1637 107.674 98.0671 107.674C98.7185 107.674 99.3173 107.601 99.8846 107.432C100.452 107.275 100.925 107.002 101.324 106.623C101.713 106.245 101.912 105.835 101.912 105.394C101.912 105.131 101.828 104.858 101.639 104.584C101.208 103.933 99.664 103.113 97.0061 102.125C95.3777 101.516 93.8334 100.822 92.3732 100.055C90.1775 98.8987 89.085 97.4169 89.085 95.6303C89.085 94.6214 89.4001 93.6966 90.0304 92.8348C90.6608 91.9835 91.4277 91.2689 92.3417 90.7014C93.2556 90.1338 94.1591 89.766 95.0731 89.5874C96.1551 89.3982 97.2687 89.2931 98.4243 89.2931C101.051 89.2931 103.593 89.745 106.062 90.6383V94.9892C105.442 94.138 104.749 93.3603 104.003 92.6666C103.246 91.973 102.437 91.416 101.565 90.9956C100.694 90.5858 99.7585 90.3756 98.7605 90.3756C98.2352 90.3756 97.6995 90.4491 97.1427 90.5858C95.777 90.9956 95.0941 91.6472 95.0941 92.509C95.0941 93.2026 95.5773 93.8332 96.5439 94.4112C97.5629 94.9787 98.687 95.4727 99.9161 95.9035C101.324 96.3975 102.648 97.0176 103.887 97.7427C105.127 98.4784 106.041 99.5398 106.619 100.948C106.808 101.474 106.913 101.999 106.913 102.525C106.913 103.765 106.461 104.9 105.558 105.919C104.654 106.938 103.488 107.674 102.07 108.116C100.704 108.504 99.2438 108.694 97.6995 108.694L97.6889 108.683Z" fill="#424243" style="fill:#424243;fill:color(display-p3 0.2588 0.2588 0.2627);fill-opacity:1;"/>
<path d="M123.469 108.599H117.775C113.972 108.599 112.06 106.981 112.06 103.733V90.302H109.14V89.2721H112.06V86.9705C112.869 86.9285 113.752 86.7813 114.708 86.5396C115.664 86.2874 116.504 85.9406 117.25 85.4992C117.996 85.0473 118.469 84.4903 118.679 83.8282V89.2721H123.69V90.302H118.679L118.658 104.395C118.7 105.93 119.193 106.991 120.16 107.569C121.126 108.158 122.219 108.494 123.469 108.599Z" fill="#424243" style="fill:#424243;fill:color(display-p3 0.2588 0.2588 0.2627);fill-opacity:1;"/>
<path d="M126.505 116.597C126.117 116.597 125.728 116.565 125.329 116.513V112.582C126.159 113.559 127.104 114.053 128.165 114.053C129.132 114.053 130.046 113.696 130.918 112.971C131.79 112.256 132.472 111.373 132.987 110.344L133.733 108.788C133.943 108.336 134.048 107.895 134.048 107.485C134.048 106.907 133.891 106.318 133.596 105.719L128.323 93.129C127.934 92.1306 127.43 91.3109 126.81 90.6488C126.19 89.9867 125.318 89.5348 124.205 89.2826L130.928 89.2615C131.947 89.2615 132.83 89.5558 133.554 90.1338C134.29 90.7118 134.826 91.4685 135.193 92.4144L137.431 98.1105C137.61 98.4994 137.83 98.6885 138.093 98.6885C138.355 98.6885 138.597 98.4994 138.818 98.1105L141.528 92.4774C141.885 91.8574 142.064 91.2583 142.064 90.6803C142.064 89.9341 141.644 89.4717 140.803 89.2931H146.518C145.604 89.4612 144.848 89.8185 144.249 90.365C143.65 90.9115 143.146 91.5946 142.726 92.4039L133.954 111.016C133.439 112.099 132.84 113.055 132.136 113.896C131.432 114.736 130.623 115.399 129.699 115.882C128.785 116.365 127.724 116.607 126.537 116.607L126.505 116.597Z" fill="#424243" style="fill:#424243;fill:color(display-p3 0.2588 0.2588 0.2627);fill-opacity:1;"/>
<path d="M38.0911 133.99C40.0116 133.99 41.5684 132.432 41.5684 130.511C41.5684 128.59 40.0116 127.033 38.0911 127.033C36.1706 127.033 34.6138 128.59 34.6138 130.511C34.6138 132.432 36.1706 133.99 38.0911 133.99Z" fill="#424243" style="fill:#424243;fill:color(display-p3 0.2588 0.2588 0.2627);fill-opacity:1;"/>
<path d="M146.245 133.99C148.165 133.99 149.722 132.432 149.722 130.511C149.722 128.59 148.165 127.033 146.245 127.033C144.324 127.033 142.768 128.59 142.768 130.511C142.768 132.432 144.324 133.99 146.245 133.99Z" fill="#424243" style="fill:#424243;fill:color(display-p3 0.2588 0.2588 0.2627);fill-opacity:1;"/>
<path d="M125.024 40.6238C123.732 32.4264 116.052 26.8248 107.847 28.107C107.795 28.1175 107.753 28.128 107.7 28.1385C103.351 23.3988 96.7852 20.8555 89.9566 21.9274C83.086 23.0099 77.6022 27.4764 74.9233 33.3722C67.5905 35.327 62.7789 42.5575 63.9766 50.2189C65.1217 57.4915 71.2989 62.7252 78.4006 62.9144L79.6192 70.7019L115.18 65.1108L113.983 57.502C121.368 55.5683 126.222 48.3272 125.013 40.6343L125.024 40.6238Z" fill="#EEE8DE" style="fill:#EEE8DE;fill:color(display-p3 0.9333 0.9098 0.8706);fill-opacity:1;"/>
<path d="M82.4766 78.8467C78.3165 76.3875 78.2534 62.8723 78.2534 62.8723C78.2534 62.8723 93.0662 64.0809 114.96 57.1026C114.96 57.1026 120.496 69.3882 114.34 74.8111C109.36 79.204 89.2632 82.8508 82.4766 78.8362V78.8467Z" fill="#EEE8DE" style="fill:#EEE8DE;fill:color(display-p3 0.9333 0.9098 0.8706);fill-opacity:1;"/>
<path d="M89.5049 81.432C85.7229 81.432 82.3507 80.896 80.1971 79.6244C76.268 77.3018 75.7742 66.477 75.7112 63.7341C68.5255 63.2296 62.5689 57.7962 61.4448 50.6287C60.2156 42.8202 64.9746 35.4005 72.5386 33.2461C75.4276 27.077 81.1425 22.7786 87.8661 21.7277C94.537 20.6768 101.261 22.9783 105.893 27.8863C109.959 27.2872 114.014 28.2856 117.334 30.7028C120.696 33.1515 122.902 36.7668 123.543 40.8654C124.688 48.1905 120.57 55.2319 113.699 57.8277C114.76 60.4761 118.29 70.5862 112.68 75.5362C109.213 78.5945 98.2455 81.432 89.5049 81.432ZM91.0492 22.5369C90.0512 22.5369 89.0427 22.6105 88.0341 22.7786C81.5838 23.7876 76.1209 27.9598 73.4105 33.9082L73.3055 34.1394L73.0638 34.2024C65.8886 36.1152 61.3607 43.104 62.5058 50.4501C63.5774 57.2812 69.3659 62.4204 76.268 62.6831L76.7828 62.7041L76.7933 63.2191C76.8353 67.7907 77.7073 76.9024 80.7538 78.6995C87.4563 82.6616 107.333 78.8362 111.987 74.727C114.298 72.6881 115.149 69.3671 114.508 64.8481C114.004 61.3064 112.754 58.2902 112.501 57.7226L112.27 57.1867L112.827 56.9975C119.53 54.738 123.595 48.0224 122.492 41.0231C121.893 37.1976 119.834 33.8346 116.714 31.5541C113.583 29.2735 109.759 28.3487 105.935 28.9477L105.505 29.0213L105.305 28.8111C101.597 24.7754 96.428 22.5369 91.0492 22.5369Z" fill="#424243" style="fill:#424243;fill:color(display-p3 0.2588 0.2588 0.2627);fill-opacity:1;"/>
<path d="M76.2678 62.8302C85.3131 63.692 94.4738 62.3363 103.256 60.1503C103.33 60.1293 103.404 60.1713 103.425 60.2449C103.446 60.3185 103.404 60.392 103.33 60.413C96.7325 62.3048 89.925 63.5869 83.0649 63.9547C80.7432 64.0703 78.4635 64.1019 76.1313 63.9022C75.8371 63.8707 75.6165 63.6079 75.648 63.3137C75.6795 63.0089 75.9632 62.7882 76.2678 62.8302Z" fill="#424243" style="fill:#424243;fill:color(display-p3 0.2588 0.2588 0.2627);fill-opacity:1;"/>
<path d="M76.8457 66.3404C81.8358 67.0235 86.994 66.477 91.9315 65.4576C92.0891 65.4156 92.1732 65.6783 91.9946 65.7203C88.2756 66.7082 84.4516 67.3598 80.5856 67.4964C79.2829 67.5385 78.0118 67.5385 76.6776 67.3913C76.3834 67.3598 76.1733 67.0971 76.1943 66.8028C76.2258 66.4875 76.5305 66.2668 76.8457 66.3404Z" fill="#424243" style="fill:#424243;fill:color(display-p3 0.2588 0.2588 0.2627);fill-opacity:1;"/>
<path d="M76.9826 47.5284C80.0082 50.3029 82.7081 53.4452 84.7671 57.008C85.1138 57.6175 84.2103 58.1535 83.8427 57.5545C81.9727 54.0023 79.4304 50.7969 76.5939 47.9698C76.3207 47.7176 76.7094 47.2867 76.9931 47.5389L76.9826 47.5284Z" fill="#424243" style="fill:#424243;fill:color(display-p3 0.2588 0.2588 0.2627);fill-opacity:1;"/>
<path d="M108.173 42.9043C106.377 46.4985 104.99 50.3345 104.349 54.2966C104.307 54.5908 104.023 54.801 103.729 54.7485C103.425 54.6959 103.225 54.3912 103.298 54.0969C103.54 53.088 103.792 52.0896 104.128 51.1122C105.095 48.2011 106.387 45.4056 107.942 42.7572C108.026 42.5995 108.278 42.7362 108.194 42.8938L108.173 42.9043Z" fill="#424243" style="fill:#424243;fill:color(display-p3 0.2588 0.2588 0.2627);fill-opacity:1;"/>
<path d="M94.1063 55.1479C92.1313 49.8931 90.9126 44.3441 90.8496 38.7321C90.8496 38.4693 91.2488 38.4483 91.2593 38.7215C91.4484 42.8623 92.3414 46.94 93.6336 50.8705C94.0643 52.1842 94.5475 53.4874 95.0938 54.738C95.367 55.4001 94.3794 55.8205 94.0958 55.1479H94.1063Z" fill="#424243" style="fill:#424243;fill:color(display-p3 0.2588 0.2588 0.2627);fill-opacity:1;"/>
<path d="M72.7276 33.183C74.6186 32.6575 76.6566 33.1935 78.285 34.2024C79.4826 34.9486 80.5332 36.0416 81.3946 37.1661C81.6152 37.4393 81.216 37.7967 80.9744 37.5339L80.9534 37.5129L80.1655 36.6406C78.369 34.8225 75.6796 33.4037 73.0953 34.1919C72.4019 34.4652 72.0132 33.4247 72.7276 33.183Z" fill="#424243" style="fill:#424243;fill:color(display-p3 0.2588 0.2588 0.2627);fill-opacity:1;"/>
<path d="M105.757 28.9897C104.36 29.1684 102.942 29.862 101.902 30.8289C101.523 31.1547 101.208 31.5435 100.904 31.9429C100.809 32.0585 100.641 32.09 100.525 31.9954C100.41 31.9114 100.389 31.7537 100.462 31.6276C101.597 29.7569 103.467 28.4012 105.631 27.9283C106.377 27.8022 106.524 28.9162 105.768 28.9897H105.757Z" fill="#424243" style="fill:#424243;fill:color(display-p3 0.2588 0.2588 0.2627);fill-opacity:1;"/>
<path d="M63.7244 153.643V153.327C63.7244 153.138 63.7139 153.023 63.6929 152.97C63.6719 152.917 63.6194 152.844 63.5248 152.76L63.3042 152.55C63.3357 152.35 63.3777 152.129 63.4303 151.909C63.4828 151.688 63.5878 151.373 63.7244 150.973L64.0606 150.879L64.4913 151.047C64.5649 151.078 64.6594 151.089 64.775 151.099C64.901 151.099 65.1111 151.11 65.4158 151.11H67.2648C67.748 151.11 68.1157 151.183 68.3783 151.32C68.641 151.457 68.8196 151.688 68.9246 152.014C69.0297 152.339 69.0822 152.802 69.0822 153.401C69.0822 153.937 69.0717 154.588 69.0507 155.335C69.0297 156.081 69.0087 156.638 68.9772 157.006H63.6614L63.7034 153.653L63.7244 153.643ZM67.7795 155.23V154.872C67.7795 154.431 67.769 154.063 67.748 153.79C67.727 153.537 67.6955 153.348 67.6535 153.222C67.6114 153.096 67.5379 153.012 67.4434 152.97C67.3488 152.928 67.1912 152.896 66.9706 152.886H65.0691L65.1742 155.24H67.7795V155.23Z" fill="#424243" style="fill:#424243;fill:color(display-p3 0.2588 0.2588 0.2627);fill-opacity:1;"/>
<path d="M70.3217 155.082L70.6894 153.622C70.7419 153.464 70.7629 153.338 70.7629 153.233C70.7629 153.17 70.7419 153.107 70.6894 153.054C70.6474 153.002 70.5528 152.928 70.4057 152.833L69.7334 152.392C69.9015 151.898 70.1326 151.404 70.4268 150.889L70.6579 150.816C70.7419 150.858 70.805 150.889 70.847 150.921C71.0886 151.047 71.2882 151.152 71.4563 151.246C71.8135 151.457 72.0551 151.667 72.2022 151.856C72.3493 152.056 72.4123 152.287 72.4123 152.56C72.4123 152.833 72.3598 153.128 72.2442 153.453C72.0971 153.926 71.929 154.42 71.7084 154.935L70.6054 155.198L70.3112 155.082H70.3217Z" fill="#424243" style="fill:#424243;fill:color(display-p3 0.2588 0.2588 0.2627);fill-opacity:1;"/>
<path d="M84.5463 151.614C84.6934 151.824 84.7564 152.119 84.7564 152.487C84.7564 152.833 84.6724 153.38 84.5148 154.137C84.3467 154.883 84.1891 155.461 84.021 155.85C83.6638 156.165 83.1071 156.501 82.3296 156.869C81.5627 157.226 80.7433 157.521 79.9029 157.752H79.4932V156.06C80.155 155.871 80.6908 155.692 81.1005 155.534L80.4177 153.243C80.3651 153.075 80.3126 152.96 80.2601 152.886C80.2075 152.823 80.0605 152.718 79.8398 152.581L79.5247 152.381C79.6928 151.846 79.8924 151.362 80.1025 150.921L80.3966 150.847C80.5962 150.931 80.7643 151.005 80.8799 151.068C81.1951 151.225 81.4262 151.404 81.5627 151.625C81.6993 151.835 81.8149 152.171 81.8989 152.613C81.9935 153.086 82.1405 153.905 82.3296 155.082C82.7289 154.914 82.9915 154.694 83.1281 154.431C83.2646 154.168 83.3382 153.779 83.3487 153.264C83.3487 153.086 83.3277 152.97 83.2961 152.907C83.2646 152.844 83.1911 152.781 83.0545 152.718L82.4347 152.413C82.6448 151.793 82.8339 151.278 83.002 150.879H83.2331C83.4432 150.952 83.6218 151.015 83.7689 151.078C84.1366 151.225 84.3992 151.394 84.5358 151.604L84.5463 151.614Z" fill="#424243" style="fill:#424243;fill:color(display-p3 0.2588 0.2588 0.2627);fill-opacity:1;"/>
<path d="M85.891 153.128C85.8805 152.97 85.8594 152.865 85.8279 152.802C85.8069 152.739 85.7439 152.644 85.6388 152.529L85.4077 152.245C85.5548 151.751 85.7544 151.299 86.0065 150.9L86.3007 150.858C86.4478 150.921 86.6263 151.036 86.847 151.183C87.0676 151.352 87.2147 151.53 87.2882 151.73C87.3617 151.93 87.4038 152.245 87.3932 152.665L87.3197 155.261C87.4983 155.251 87.7189 155.219 87.9605 155.177C88.2022 155.135 88.3913 155.093 88.5278 155.051C88.822 154.967 89.0531 154.872 89.2002 154.757C89.3578 154.641 89.4628 154.494 89.5259 154.305C89.5889 154.116 89.6204 153.853 89.6204 153.527C89.6204 153.254 89.5994 153.075 89.5469 152.991C89.5048 152.907 89.3998 152.844 89.2422 152.812L88.0656 152.592C88.1601 151.951 88.2757 151.373 88.4228 150.879H88.7379C89.0321 150.91 89.3998 150.984 89.841 151.089C90.2192 151.173 90.4924 151.331 90.6605 151.562C90.8285 151.793 90.9126 152.119 90.9126 152.55C90.9126 152.991 90.8285 153.622 90.671 154.441C90.5029 155.261 90.3558 155.839 90.1982 156.165C89.841 156.386 89.3368 156.585 88.7064 156.774C88.0761 156.964 87.4143 157.09 86.7524 157.163H86.2271L85.87 153.159L85.891 153.128Z" fill="#424243" style="fill:#424243;fill:color(display-p3 0.2588 0.2588 0.2627);fill-opacity:1;"/>
<path d="M91.7637 156.596C91.8162 156.154 91.9633 155.314 92.1944 154.053C92.2469 153.779 92.289 153.559 92.3205 153.369C92.3415 153.243 92.352 153.149 92.352 153.086C92.352 153.033 92.3415 152.991 92.31 152.949C92.2785 152.917 92.2154 152.865 92.1104 152.802L91.7427 152.581C91.7952 151.982 91.9108 151.425 92.0578 150.91L92.2995 150.837L92.7827 151.015C93.0559 151.12 93.245 151.183 93.35 151.215C93.4446 151.236 93.5496 151.257 93.6547 151.257C93.7492 151.257 94.0119 151.225 94.4216 151.173C94.4951 151.162 94.6422 151.152 94.8628 151.12C95.0834 151.089 95.262 151.078 95.3881 151.078C95.7873 151.078 96.1235 151.152 96.3966 151.31C96.6697 151.467 96.8693 151.688 96.9744 151.972C97.069 152.192 97.132 152.476 97.153 152.791C97.1845 153.107 97.195 153.517 97.195 154.021C97.195 154.62 97.1845 155.167 97.1635 155.65L97.0479 156.995H94.1694L94.243 155.219H95.9239C95.9239 154.862 95.9028 154.378 95.8503 153.779C95.8293 153.506 95.7873 153.296 95.7453 153.159C95.6927 153.023 95.6087 152.928 95.4931 152.875C95.3776 152.823 95.199 152.791 94.9679 152.791C94.6317 152.791 94.222 152.812 93.7387 152.854C93.6967 153.264 93.6547 153.653 93.6232 154.031C93.5916 154.399 93.5601 154.725 93.5286 154.998L93.3605 156.88C92.9613 156.985 92.5936 157.048 92.2785 157.069H91.7742L91.7532 156.596H91.7637Z" fill="#424243" style="fill:#424243;fill:color(display-p3 0.2588 0.2588 0.2627);fill-opacity:1;"/>
<path d="M73.0322 156.596C73.0848 156.154 73.2318 155.314 73.463 154.053C73.5155 153.779 73.5575 153.559 73.589 153.369C73.61 153.243 73.6206 153.149 73.6206 153.086C73.6206 153.033 73.61 152.991 73.5785 152.949C73.547 152.917 73.484 152.865 73.3789 152.802L73.0112 152.581C73.0638 151.982 73.1793 151.425 73.3264 150.91L73.568 150.837L74.0513 151.015C74.3244 151.12 74.5135 151.183 74.6186 151.215C74.7131 151.236 74.8182 151.257 74.9232 151.257C75.0178 151.257 75.2804 151.225 75.6901 151.173C75.7637 151.162 75.9107 151.152 76.1314 151.12C76.352 151.089 76.5306 151.078 76.6566 151.078C77.0558 151.078 77.392 151.152 77.6652 151.31C77.9383 151.467 78.1379 151.688 78.243 151.972C78.3375 152.192 78.4005 152.476 78.4216 152.791C78.4531 153.107 78.4636 153.517 78.4636 154.021C78.4636 154.62 78.4531 155.167 78.4321 155.65L78.3165 156.995H75.438L75.5115 155.219H77.1924C77.1924 154.862 77.1714 154.378 77.1189 153.779C77.0979 153.506 77.0558 153.296 77.0138 153.159C76.9613 153.023 76.8772 152.928 76.7617 152.875C76.6461 152.823 76.4675 152.791 76.2364 152.791C75.9002 152.791 75.4905 152.812 75.0073 152.854C74.9653 153.264 74.9232 153.653 74.9022 154.031C74.8707 154.399 74.8392 154.725 74.8077 154.998L74.6396 156.88C74.2404 156.985 73.8727 157.048 73.5575 157.069H73.0533L73.0322 156.596Z" fill="#424243" style="fill:#424243;fill:color(display-p3 0.2588 0.2588 0.2627);fill-opacity:1;"/>
<path d="M103.183 156.249C103.183 155.061 103.172 154.242 103.151 153.8C103.141 153.453 103.088 153.222 102.983 153.096C102.878 152.97 102.689 152.907 102.426 152.907H100.935C100.819 152.907 100.567 152.844 100.178 152.728C100.231 152.077 100.325 151.457 100.462 150.879L101.187 150.753L101.376 150.963C101.439 151.036 101.502 151.089 101.554 151.11C101.607 151.131 101.702 151.141 101.849 151.141H102.763C103.256 151.141 103.624 151.204 103.897 151.341C104.16 151.478 104.349 151.698 104.454 152.014C104.559 152.329 104.622 152.781 104.633 153.369C104.633 153.874 104.622 154.473 104.591 155.167C104.559 155.86 104.527 156.449 104.485 156.922L103.666 157.132H103.214C103.214 156.796 103.214 156.501 103.204 156.26L103.183 156.249Z" fill="#424243" style="fill:#424243;fill:color(display-p3 0.2588 0.2588 0.2627);fill-opacity:1;"/>
<path d="M109.707 156.06C109.696 154.925 109.675 154.168 109.654 153.79C109.644 153.548 109.602 153.369 109.549 153.243C109.497 153.117 109.413 153.033 109.297 152.981C109.182 152.928 109.013 152.907 108.793 152.907H107.406L107.417 156.911L106.324 157.1H105.925C105.935 156.217 105.967 155.072 106.019 153.653L106.03 153.306C106.03 153.138 106.019 153.033 105.988 152.981C105.967 152.928 105.904 152.854 105.809 152.77L105.578 152.56C105.61 152.35 105.652 152.129 105.715 151.898C105.778 151.667 105.883 151.362 106.009 150.994L106.345 150.9L106.776 151.068C106.849 151.099 106.923 151.11 107.017 151.12C107.101 151.131 107.333 151.131 107.69 151.131H109.171C109.686 151.131 110.074 151.204 110.348 151.352C110.61 151.499 110.799 151.74 110.904 152.087C111.009 152.434 111.062 152.949 111.062 153.622C111.062 154.105 111.051 154.662 111.03 155.293C111.009 155.923 110.978 156.47 110.946 156.922L110.116 157.142H109.707C109.707 156.974 109.696 156.617 109.696 156.07L109.707 156.06Z" fill="#424243" style="fill:#424243;fill:color(display-p3 0.2588 0.2588 0.2627);fill-opacity:1;"/>
<path d="M112.039 155.219H114.918V154.473C114.918 154.284 114.918 154.105 114.907 153.926C114.897 153.674 114.865 153.474 114.834 153.348C114.802 153.212 114.739 153.107 114.634 153.023C114.529 152.938 114.371 152.896 114.151 152.896H112.869C112.753 152.896 112.501 152.833 112.113 152.718C112.165 152.066 112.26 151.446 112.396 150.868L113.121 150.742L113.31 150.952C113.373 151.026 113.436 151.078 113.489 151.099C113.541 151.12 113.636 151.131 113.783 151.131H114.508C114.981 151.131 115.338 151.194 115.59 151.331C115.842 151.467 116.021 151.688 116.126 152.003C116.231 152.318 116.283 152.76 116.283 153.338C116.283 153.779 116.252 154.41 116.199 155.219H116.945L116.851 156.995H111.955L112.05 155.219H112.039Z" fill="#424243" style="fill:#424243;fill:color(display-p3 0.2588 0.2588 0.2627);fill-opacity:1;"/>
<path d="M117.607 156.596C117.659 156.154 117.807 155.314 118.038 154.053C118.09 153.779 118.132 153.559 118.164 153.369C118.185 153.243 118.195 153.149 118.195 153.086C118.195 153.033 118.185 152.991 118.153 152.949C118.122 152.917 118.059 152.865 117.954 152.802L117.586 152.581C117.638 151.982 117.754 151.425 117.901 150.91L118.143 150.837L118.626 151.015C118.899 151.12 119.088 151.183 119.193 151.215C119.288 151.236 119.393 151.257 119.498 151.257C119.592 151.257 119.855 151.225 120.265 151.173C120.338 151.162 120.485 151.152 120.706 151.12C120.927 151.089 121.105 151.078 121.231 151.078C121.631 151.078 121.967 151.152 122.24 151.31C122.513 151.467 122.713 151.688 122.818 151.972C122.912 152.192 122.975 152.476 122.996 152.791C123.028 153.107 123.038 153.517 123.038 154.021C123.038 154.62 123.028 155.167 123.007 155.65L122.891 156.995H120.013L120.086 155.219H121.767C121.767 154.862 121.746 154.378 121.694 153.779C121.673 153.506 121.631 153.296 121.578 153.159C121.525 153.023 121.441 152.928 121.326 152.875C121.21 152.823 121.032 152.791 120.801 152.791C120.464 152.791 120.055 152.812 119.571 152.854C119.529 153.264 119.487 153.653 119.466 154.031C119.435 154.399 119.403 154.725 119.372 154.998L119.204 156.88C118.805 156.985 118.437 157.048 118.122 157.069H117.617L117.596 156.596H117.607Z" fill="#424243" style="fill:#424243;fill:color(display-p3 0.2588 0.2588 0.2627);fill-opacity:1;"/>
</g>
<defs>
<clipPath id="clip0_2_162">
<rect width="185.355" height="170" fill="white" style="fill:white;fill:white;fill-opacity:1;"/>
</clipPath>
</defs>
</svg>
